<?xml version="1.0" encoding="utf-8"?>
<!-- Generator: Adobe Illustrator 27.5.0, SVG Export Plug-In . SVG Version: 6.00 Build 0)  -->
<svg version="1.1" xmlns="http://www.w3.org/2000/svg" xmlns:xlink="http://www.w3.org/1999/xlink" x="0px" y="0px"
	 viewBox="0 0 500 500" style="enable-background:new 0 0 500 500;" xml:space="preserve">
<g id="Background_Complete">
	<g>
		<rect y="382.398" style="fill:#EBEBEB;" width="500" height="0.25"/>
		<rect x="416.779" y="398.494" style="fill:#EBEBEB;" width="33.122" height="0.25"/>
		<rect x="322.527" y="401.208" style="fill:#EBEBEB;" width="8.693" height="0.25"/>
		<rect x="396.586" y="389.208" style="fill:#EBEBEB;" width="19.192" height="0.25"/>
		<rect x="52.459" y="390.888" style="fill:#EBEBEB;" width="43.193" height="0.25"/>
		<rect x="104.556" y="390.888" style="fill:#EBEBEB;" width="6.333" height="0.25"/>
		<rect x="131.471" y="395.111" style="fill:#EBEBEB;" width="93.676" height="0.25"/>
		<path style="fill:#EBEBEB;" d="M237.014,337.8H43.915c-3.147,0-5.708-2.561-5.708-5.708V60.66c0-3.147,2.561-5.708,5.708-5.708
			h193.099c3.146,0,5.707,2.561,5.707,5.708v271.432C242.721,335.239,240.16,337.8,237.014,337.8z M43.915,55.203
			c-3.01,0-5.458,2.448-5.458,5.458v271.432c0,3.01,2.448,5.458,5.458,5.458h193.099c3.009,0,5.457-2.448,5.457-5.458V60.66
			c0-3.009-2.448-5.458-5.457-5.458H43.915z"/>
		<path style="fill:#EBEBEB;" d="M453.31,337.8H260.212c-3.147,0-5.707-2.561-5.707-5.708V60.66c0-3.147,2.561-5.708,5.707-5.708
			H453.31c3.148,0,5.708,2.561,5.708,5.708v271.432C459.019,335.239,456.458,337.8,453.31,337.8z M260.212,55.203
			c-3.009,0-5.457,2.448-5.457,5.458v271.432c0,3.01,2.448,5.458,5.457,5.458H453.31c3.01,0,5.458-2.448,5.458-5.458V60.66
			c0-3.009-2.448-5.458-5.458-5.458H260.212z"/>
	</g>
	<g>
		<g>
			<polygon style="fill:#E0E0E0;" points="403.678,382.132 403.678,287.913 325.678,287.913 325.678,205.913 314.678,205.913 
				314.678,252.913 284.678,252.913 284.678,239.913 230.678,239.913 230.678,194.913 220.678,194.913 220.678,139.913 
				212.678,139.913 212.678,193.913 193.678,193.913 193.678,273.913 157.678,273.913 157.678,193.913 92.678,193.913 
				92.678,273.913 60.678,273.913 60.678,382.132 			"/>
			<g>
				<g>
					<g>
						<rect x="107.678" y="135.913" style="fill:#F0F0F0;" width="80" height="246.219"/>
					</g>
					<g>
						<rect x="107.678" y="151.913" style="fill:#E6E6E6;" width="80" height="2"/>
					</g>
					<g>
						<rect x="107.678" y="167.913" style="fill:#E6E6E6;" width="80" height="2"/>
					</g>
					<g>
						<rect x="107.678" y="183.913" style="fill:#E6E6E6;" width="80" height="2"/>
					</g>
					<g>
						<rect x="107.678" y="199.913" style="fill:#E6E6E6;" width="80" height="2"/>
					</g>
					<g>
						<rect x="107.678" y="215.913" style="fill:#E6E6E6;" width="80" height="2"/>
					</g>
					<g>
						<rect x="107.678" y="231.913" style="fill:#E6E6E6;" width="80" height="2"/>
					</g>
					<g>
						<rect x="107.678" y="247.913" style="fill:#E6E6E6;" width="80" height="2"/>
					</g>
					<g>
						<rect x="107.678" y="263.913" style="fill:#E6E6E6;" width="80" height="2"/>
					</g>
					<g>
						<rect x="107.678" y="279.913" style="fill:#E6E6E6;" width="80" height="2"/>
					</g>
					<g>
						<rect x="107.678" y="295.913" style="fill:#E6E6E6;" width="80" height="2"/>
					</g>
					<g>
						<rect x="107.678" y="311.913" style="fill:#E6E6E6;" width="80" height="2"/>
					</g>
					<g>
						<rect x="107.678" y="327.913" style="fill:#E6E6E6;" width="80" height="2"/>
					</g>
					<g>
						<rect x="107.678" y="343.913" style="fill:#E6E6E6;" width="80" height="2"/>
					</g>
					<g>
						<rect x="107.678" y="359.913" style="fill:#E6E6E6;" width="80" height="2"/>
					</g>
					<g>
						<rect x="107.678" y="375.913" style="fill:#E6E6E6;" width="80" height="2"/>
					</g>
				</g>
				<g>
					<g>
						<g>
							<rect x="221.678" y="273.913" style="fill:#E6E6E6;" width="80" height="2"/>
						</g>
					</g>
					<g>
						<rect x="221.678" y="209.913" style="fill:#F0F0F0;" width="80" height="172.219"/>
					</g>
					<g>
						<rect x="221.678" y="225.913" style="fill:#E6E6E6;" width="80" height="2"/>
					</g>
					<g>
						<rect x="221.678" y="241.913" style="fill:#E6E6E6;" width="80" height="2"/>
					</g>
					<g>
						<rect x="221.678" y="257.913" style="fill:#E6E6E6;" width="80" height="2"/>
					</g>
					<g>
						<rect x="221.678" y="289.913" style="fill:#E6E6E6;" width="80" height="2"/>
					</g>
					<g>
						<rect x="221.678" y="305.913" style="fill:#E6E6E6;" width="80" height="2"/>
					</g>
					<g>
						<rect x="221.678" y="321.913" style="fill:#E6E6E6;" width="80" height="2"/>
					</g>
					<g>
						<rect x="221.678" y="337.913" style="fill:#E6E6E6;" width="80" height="2"/>
					</g>
					<g>
						<rect x="221.678" y="353.913" style="fill:#E6E6E6;" width="80" height="2"/>
					</g>
					<g>
						<rect x="221.678" y="369.913" style="fill:#E6E6E6;" width="80" height="2"/>
					</g>
				</g>
				<g>
					<g>
						<rect x="336.678" y="179.913" style="fill:#F0F0F0;" width="80" height="202.219"/>
					</g>
					<g>
						<rect x="336.678" y="195.913" style="fill:#E6E6E6;" width="80" height="2"/>
					</g>
					<g>
						<rect x="336.678" y="211.913" style="fill:#E6E6E6;" width="80" height="2"/>
					</g>
					<g>
						<rect x="336.678" y="227.913" style="fill:#E6E6E6;" width="80" height="2"/>
					</g>
					<g>
						<rect x="336.678" y="243.913" style="fill:#E6E6E6;" width="80" height="2"/>
					</g>
					<g>
						<rect x="336.678" y="259.913" style="fill:#E6E6E6;" width="80" height="2"/>
					</g>
					<g>
						<rect x="336.678" y="275.913" style="fill:#E6E6E6;" width="80" height="2"/>
					</g>
					<g>
						<rect x="336.678" y="291.913" style="fill:#E6E6E6;" width="80" height="2"/>
					</g>
					<g>
						<rect x="336.678" y="307.913" style="fill:#E6E6E6;" width="80" height="2"/>
					</g>
					<g>
						<rect x="336.678" y="323.913" style="fill:#E6E6E6;" width="80" height="2"/>
					</g>
					<g>
						<rect x="336.678" y="339.913" style="fill:#E6E6E6;" width="80" height="2"/>
					</g>
					<g>
						<rect x="336.678" y="355.913" style="fill:#E6E6E6;" width="80" height="2"/>
					</g>
					<g>
						<rect x="336.678" y="371.913" style="fill:#E6E6E6;" width="80" height="2"/>
					</g>
				</g>
			</g>
		</g>
		<circle style="fill:#FAFAFA;" cx="164.583" cy="91.023" r="27.787"/>
		<path style="fill:#F0F0F0;" d="M150.168,90.71c0-2.668-2.163-4.83-4.83-4.83c-0.482,0-0.947,0.073-1.387,0.205
			c0.07-0.484,0.108-0.979,0.108-1.483c0-5.649-4.58-10.229-10.229-10.229c-0.644,0-1.273,0.062-1.884,0.176
			c-1.572-2.573-4.399-4.296-7.634-4.296c-4.898,0-8.871,3.935-8.944,8.816c-0.05-0.001-0.099-0.007-0.149-0.007
			c-4.551,0-8.24,3.689-8.24,8.24c0,4.551,3.689,8.24,8.24,8.24h30.261l-0.006-0.007C148.077,95.461,150.168,93.332,150.168,90.71z"
			/>
		<path style="fill:#F0F0F0;" d="M437.403,147.768c0-2.668-2.163-4.83-4.83-4.83c-0.482,0-0.947,0.073-1.387,0.204
			c0.07-0.484,0.108-0.979,0.108-1.483c0-5.649-4.58-10.229-10.229-10.229c-0.644,0-1.273,0.062-1.884,0.176
			c-1.572-2.573-4.398-4.296-7.634-4.296c-4.898,0-8.871,3.935-8.944,8.816c-0.05-0.001-0.099-0.008-0.149-0.008
			c-4.551,0-8.24,3.689-8.24,8.24c0,4.551,3.689,8.24,8.24,8.24h30.26l-0.006-0.007
			C435.313,152.518,437.403,150.389,437.403,147.768z"/>
		<path style="fill:#F0F0F0;" d="M330.579,90.71c0-2.668,2.163-4.83,4.83-4.83c0.482,0,0.947,0.073,1.387,0.205
			c-0.07-0.484-0.108-0.979-0.108-1.483c0-5.649,4.58-10.229,10.229-10.229c0.644,0,1.273,0.062,1.884,0.176
			c1.572-2.573,4.398-4.296,7.634-4.296c4.898,0,8.871,3.935,8.944,8.816c0.05-0.001,0.099-0.007,0.149-0.007
			c4.551,0,8.24,3.689,8.24,8.24c0,4.551-3.689,8.24-8.24,8.24h-30.261l0.006-0.007C332.669,95.461,330.579,93.332,330.579,90.71z"
			/>
		<path style="fill:#F0F0F0;" d="M210.777,105.182c0-1.659-1.345-3.003-3.003-3.003c-0.3,0-0.589,0.045-0.862,0.127
			c0.044-0.301,0.067-0.609,0.067-0.922c0-3.512-2.847-6.359-6.359-6.359c-0.4,0-0.792,0.039-1.172,0.109
			c-0.977-1.6-2.734-2.671-4.746-2.671c-3.045,0-5.515,2.447-5.56,5.481c-0.031-0.001-0.061-0.005-0.093-0.005
			c-2.829,0-5.123,2.294-5.123,5.123s2.294,5.123,5.123,5.123h18.813l-0.004-0.004C209.477,108.135,210.777,106.812,210.777,105.182
			z"/>
		<path style="fill:#F0F0F0;" d="M301.191,168.252c0-1.659,1.345-3.003,3.003-3.003c0.3,0,0.589,0.045,0.862,0.127
			c-0.044-0.301-0.067-0.609-0.067-0.922c0-3.512,2.847-6.359,6.359-6.359c0.4,0,0.792,0.039,1.171,0.109
			c0.977-1.6,2.734-2.671,4.746-2.671c3.045,0,5.515,2.447,5.56,5.481c0.031-0.001,0.061-0.005,0.093-0.005
			c2.829,0,5.123,2.294,5.123,5.123s-2.293,5.123-5.123,5.123h-18.813l0.004-0.004C302.49,171.205,301.191,169.882,301.191,168.252z
			"/>
		<g>
			<path style="fill:#E6E6E6;" d="M334.918,120.429c0,0,0.791-2.67-3.61-4.994c0,0-0.989,0.791-4.451,1.533
				c-3.461,0.742,2.324,6.082,5.687,6.33C335.906,123.544,334.918,120.429,334.918,120.429z"/>
			<path style="fill:#F0F0F0;" d="M334.176,120.625c0,0,0.824-4.284,8.208-5.339c7.385-1.055,10.354-1.467,10.354-1.467
				s0.773,7.863-9.513,9.181l9.513-0.89c0,0-0.859,2.621-4.716,3.758l-5.044-1.038c0,0-8.733,2.256-12.659-1.483
				c-1.523-1.451-3.865-1.236-3.865-1.236s0.453-0.693,1.294-0.94c0,0-0.451-1.19,0.346-1.731
				C330.714,117.66,332.47,121.415,334.176,120.625z"/>
		</g>
		<g>
			<path style="fill:#E6E6E6;" d="M279.529,99.995c0,0,0.448-1.511-2.043-2.826c0,0-0.56,0.448-2.518,0.867
				c-1.959,0.42,1.315,3.442,3.218,3.582S279.529,99.995,279.529,99.995z"/>
			<path style="fill:#F0F0F0;" d="M279.11,100.105c0,0,0.466-2.424,4.645-3.021c4.179-0.597,5.859-0.83,5.859-0.83
				s0.437,4.449-5.383,5.195l5.383-0.504c0,0-0.486,1.483-2.669,2.127l-2.854-0.588c0,0-4.942,1.276-7.164-0.84
				c-0.862-0.821-2.187-0.699-2.187-0.699s0.257-0.392,0.732-0.532c0,0-0.255-0.673,0.196-0.979
				C277.151,98.428,278.145,100.553,279.11,100.105z"/>
		</g>
		<g>
			<path style="fill:#E6E6E6;" d="M241.662,127.118c0,0,0.314-1.06-1.433-1.983c0,0-0.393,0.314-1.767,0.609
				c-1.374,0.294,0.923,2.414,2.257,2.513C242.055,128.355,241.662,127.118,241.662,127.118z"/>
			<path style="fill:#F0F0F0;" d="M241.368,127.196c0,0,0.327-1.701,3.258-2.119c2.931-0.419,4.11-0.582,4.11-0.582
				s0.307,3.121-3.776,3.645l3.776-0.353c0,0-0.341,1.04-1.872,1.492l-2.002-0.412c0,0-3.467,0.896-5.025-0.589
				c-0.605-0.576-1.534-0.49-1.534-0.49s0.18-0.275,0.514-0.373c0,0-0.179-0.472,0.137-0.687
				C239.994,126.019,240.691,127.51,241.368,127.196z"/>
		</g>
	</g>
</g>
<g id="Background_Simple" style="display:none;">
	<g style="display:inline;">
		<path style="fill:#407BFF;" d="M95.276,104.916c18.985-31.442,60.024-39.962,93.517-30.241
			c35.256,10.233,64.602,38.127,102.923,38.083c25.848-0.03,50.425-13.579,76.253-12.562c22.202,0.874,43.228,13.765,55.17,32.33
			c21.299,33.117-2.718,70.572-26.723,94.405c-29.954,29.74-57.109,62.146-83.101,95.419c-10.788,13.81-21.463,27.908-34.797,39.279
			c-13.334,11.371-29.783,19.955-47.295,20.609c-25.212,0.942-48.637-14.78-63.931-34.844
			c-14.769-19.375-23.597-43.216-25.007-67.538c-1.106-19.073,3.051-41.23-5.34-59.18c-8.741-18.699-27.189-30.018-39.804-46.046
			C81.313,154.52,82.462,126.138,95.276,104.916z"/>
		<path style="opacity:0.9;fill:#FFFFFF;" d="M95.276,104.916c18.985-31.442,60.024-39.962,93.517-30.241
			c35.256,10.233,64.602,38.127,102.923,38.083c25.848-0.03,50.425-13.579,76.253-12.562c22.202,0.874,43.228,13.765,55.17,32.33
			c21.299,33.117-2.718,70.572-26.723,94.405c-29.954,29.74-57.109,62.146-83.101,95.419c-10.788,13.81-21.463,27.908-34.797,39.279
			c-13.334,11.371-29.783,19.955-47.295,20.609c-25.212,0.942-48.637-14.78-63.931-34.844
			c-14.769-19.375-23.597-43.216-25.007-67.538c-1.106-19.073,3.051-41.23-5.34-59.18c-8.741-18.699-27.189-30.018-39.804-46.046
			C81.313,154.52,82.462,126.138,95.276,104.916z"/>
	</g>
</g>
<g id="Shadow_1_">
	<ellipse id="_x3C_Path_x3E__359_" style="fill:#F5F5F5;" cx="250" cy="416.238" rx="193.889" ry="11.323"/>
</g>
<g id="Wallet_1">
	<g>
		<g>
			<path style="fill:#407BFF;" d="M153.201,252.11c-0.042,0-0.085-0.005-0.126-0.017c-0.268-0.069-0.428-0.343-0.358-0.609
				c0.006-0.021,0.58-2.212,1.815-5.808c0.09-0.263,0.374-0.402,0.635-0.311c0.261,0.09,0.4,0.374,0.311,0.635
				c-1.221,3.557-1.788,5.714-1.793,5.735C153.626,251.961,153.422,252.11,153.201,252.11z M157.448,239.758
				c-0.062,0-0.125-0.012-0.185-0.035c-0.256-0.103-0.382-0.394-0.279-0.65c0.737-1.851,1.525-3.722,2.342-5.562
				c0.112-0.252,0.407-0.366,0.66-0.254c0.252,0.112,0.366,0.407,0.254,0.66c-0.812,1.828-1.594,3.688-2.327,5.526
				C157.834,239.639,157.646,239.758,157.448,239.758z M162.769,227.866c-0.075,0-0.151-0.017-0.222-0.052
				c-0.248-0.123-0.348-0.423-0.225-0.67c0.893-1.792,1.832-3.591,2.792-5.345c0.132-0.242,0.436-0.331,0.679-0.198
				c0.242,0.132,0.331,0.437,0.198,0.679c-0.954,1.743-1.888,3.53-2.774,5.31C163.129,227.765,162.952,227.866,162.769,227.866z
				 M169.064,216.471c-0.089,0-0.179-0.023-0.26-0.073c-0.236-0.144-0.31-0.452-0.166-0.688c1.054-1.723,2.148-3.431,3.254-5.076
				c0.154-0.228,0.464-0.291,0.694-0.136c0.229,0.154,0.29,0.465,0.136,0.694c-1.098,1.633-2.185,3.329-3.23,5.04
				C169.397,216.386,169.232,216.471,169.064,216.471z M176.367,205.702c-0.105,0-0.21-0.033-0.3-0.101
				c-0.221-0.166-0.265-0.48-0.099-0.7c1.215-1.615,2.474-3.206,3.741-4.728c0.177-0.211,0.492-0.241,0.704-0.064
				c0.212,0.177,0.241,0.492,0.064,0.704c-1.256,1.509-2.505,3.087-3.71,4.689C176.669,205.633,176.519,205.702,176.367,205.702z
				 M327.253,202.81c-0.151,0-0.3-0.068-0.398-0.197c-1.201-1.578-2.47-3.132-3.772-4.621c-0.182-0.208-0.161-0.523,0.047-0.706
				c0.207-0.182,0.523-0.162,0.706,0.047c1.317,1.505,2.6,3.078,3.815,4.673c0.167,0.22,0.125,0.533-0.095,0.701
				C327.465,202.776,327.358,202.81,327.253,202.81z M184.733,195.748c-0.123,0-0.246-0.045-0.343-0.136
				c-0.201-0.189-0.21-0.506-0.021-0.707c1.387-1.473,2.818-2.91,4.254-4.273c0.201-0.189,0.517-0.181,0.707,0.019
				c0.19,0.2,0.182,0.517-0.019,0.707c-1.422,1.35-2.84,2.774-4.213,4.233C184.999,195.695,184.866,195.748,184.733,195.748z
				 M318.642,193.079c-0.126,0-0.252-0.047-0.349-0.142c-1.419-1.383-2.903-2.734-4.413-4.018c-0.211-0.179-0.236-0.494-0.057-0.705
				c0.178-0.21,0.495-0.236,0.705-0.057c1.526,1.297,3.028,2.665,4.463,4.064c0.198,0.192,0.202,0.509,0.009,0.707
				C318.902,193.029,318.772,193.079,318.642,193.079z M194.206,186.854c-0.145,0-0.287-0.062-0.386-0.182
				c-0.176-0.213-0.145-0.528,0.067-0.704c1.555-1.282,3.159-2.523,4.769-3.688c0.223-0.161,0.536-0.112,0.698,0.112
				c0.162,0.224,0.111,0.536-0.112,0.698c-1.592,1.152-3.18,2.38-4.718,3.649C194.431,186.816,194.318,186.854,194.206,186.854z
				 M308.698,184.721c-0.102,0-0.204-0.031-0.292-0.095c-1.605-1.158-3.27-2.278-4.951-3.327c-0.234-0.146-0.306-0.455-0.16-0.689
				c0.147-0.234,0.455-0.306,0.689-0.16c1.7,1.062,3.384,2.193,5.006,3.365c0.224,0.162,0.274,0.474,0.113,0.698
				C309.006,184.649,308.853,184.721,308.698,184.721z M204.77,179.308c-0.168,0-0.333-0.085-0.427-0.239
				c-0.144-0.236-0.07-0.544,0.166-0.688c1.718-1.05,3.484-2.047,5.249-2.963c0.246-0.126,0.546-0.032,0.674,0.213
				c0.127,0.245,0.032,0.547-0.213,0.674c-1.744,0.905-3.49,1.891-5.188,2.929C204.949,179.284,204.859,179.308,204.77,179.308z
				 M297.645,177.902c-0.078,0-0.157-0.018-0.231-0.057c-1.75-0.913-3.559-1.783-5.376-2.584c-0.253-0.111-0.367-0.407-0.256-0.659
				c0.112-0.252,0.408-0.366,0.659-0.256c1.837,0.81,3.666,1.689,5.436,2.612c0.245,0.128,0.339,0.43,0.212,0.675
				C297.999,177.804,297.825,177.902,297.645,177.902z M216.319,173.399c-0.195,0-0.381-0.115-0.461-0.307
				c-0.106-0.255,0.014-0.547,0.269-0.654c1.849-0.773,3.747-1.488,5.64-2.124c0.262-0.088,0.545,0.054,0.633,0.315
				c0.088,0.262-0.053,0.545-0.315,0.633c-1.87,0.628-3.745,1.334-5.572,2.098C216.449,173.387,216.383,173.399,216.319,173.399z
				 M285.736,172.721c-0.056,0-0.112-0.009-0.168-0.029c-1.852-0.659-3.764-1.271-5.682-1.821c-0.266-0.076-0.419-0.353-0.343-0.618
				c0.076-0.266,0.354-0.417,0.618-0.343c1.938,0.556,3.87,1.175,5.742,1.84c0.26,0.093,0.396,0.378,0.304,0.639
				C286.135,172.593,285.942,172.721,285.736,172.721z M228.634,169.343c-0.225,0-0.429-0.153-0.485-0.381
				c-0.065-0.268,0.099-0.539,0.367-0.605c1.929-0.473,3.913-0.886,5.896-1.228c0.272-0.046,0.531,0.135,0.578,0.408
				c0.047,0.272-0.136,0.531-0.408,0.578c-1.96,0.338-3.921,0.746-5.828,1.214C228.713,169.338,228.673,169.343,228.634,169.343z
				 M273.235,169.197c-0.035,0-0.069-0.003-0.105-0.011c-1.926-0.41-3.901-0.771-5.872-1.074c-0.273-0.042-0.461-0.297-0.419-0.57
				c0.042-0.273,0.296-0.463,0.57-0.419c1.99,0.306,3.984,0.67,5.928,1.083c0.27,0.058,0.442,0.323,0.385,0.593
				C273.674,169.036,273.466,169.197,273.235,169.197z M260.389,167.279c-0.015,0-0.03-0.001-0.045-0.002
				c-1.961-0.174-3.967-0.299-5.96-0.372c-0.276-0.01-0.492-0.242-0.481-0.518c0.01-0.277,0.267-0.499,0.518-0.481
				c2.011,0.073,4.034,0.2,6.013,0.375c0.275,0.024,0.478,0.267,0.454,0.542C260.864,167.083,260.646,167.279,260.389,167.279z
				 M241.42,167.213c-0.256,0-0.474-0.195-0.497-0.455c-0.025-0.275,0.177-0.518,0.453-0.544c1.972-0.181,3.996-0.3,6.015-0.355
				c0.275-0.005,0.506,0.21,0.514,0.486c0.007,0.276-0.21,0.506-0.486,0.514c-1.999,0.054-4.001,0.172-5.952,0.351
				C241.451,167.212,241.436,167.213,241.42,167.213z"/>
			<path style="fill:#407BFF;" d="M328.085,203.705c-0.018,0-0.036-0.001-0.054-0.003l-4.161-0.446
				c-0.275-0.029-0.473-0.276-0.444-0.55c0.029-0.274,0.272-0.48,0.55-0.444l3.698,0.396l0.643-3.571
				c0.049-0.272,0.309-0.452,0.58-0.404c0.272,0.049,0.453,0.309,0.404,0.581l-0.726,4.029
				C328.533,203.534,328.324,203.705,328.085,203.705z"/>
		</g>
		<path style="fill:#407BFF;" d="M201.074,264.439H51.648c-3.61,0-6.536,2.927-6.536,6.536v119.049c0,3.61,2.927,6.536,6.536,6.536
			h149.427c3.61,0,6.536-2.926,6.536-6.536V270.975C207.611,267.365,204.684,264.439,201.074,264.439z"/>
		<path style="opacity:0.3;enable-background:new    ;" d="M201.074,264.439H51.648c-3.61,0-6.536,2.927-6.536,6.536v119.049
			c0,3.61,2.927,6.536,6.536,6.536h149.427c3.61,0,6.536-2.926,6.536-6.536V270.975
			C207.611,267.365,204.684,264.439,201.074,264.439z"/>
		<path style="fill:#263238;" d="M201.6,270.42c0,1.18-0.48,2.25-1.25,3.02s-1.83,1.25-3.01,1.25H56.33c-2.35,0-4.26-1.91-4.26-4.27
			c0-1.18,0.48-2.24,1.25-3.01c0.77-0.77,1.84-1.25,3.01-1.25h141.01C199.69,266.16,201.6,268.07,201.6,270.42z"/>
		<g>
			<circle style="fill:#407BFF;" cx="181.861" cy="203.571" r="31.914"/>
			<circle style="opacity:0.3;fill:#FFFFFF;enable-background:new    ;" cx="181.861" cy="203.571" r="31.914"/>
			<g>
				<path style="opacity:0.6;fill:#FFFFFF;enable-background:new    ;" d="M181.861,178.603c-13.789,0-24.968,11.179-24.968,24.968
					c0,13.789,11.178,24.968,24.968,24.968c13.789,0,24.968-11.179,24.968-24.968C206.829,189.782,195.65,178.603,181.861,178.603z
					 M184.163,217.785v4.447h-3.97v-4.328c-3.931-0.238-7.703-1.469-9.886-3.176l2.184-4.844c1.985,1.469,4.844,2.541,7.703,2.819
					v-6.63c-4.407-1.072-9.331-2.541-9.331-8.218c0-4.209,3.057-7.822,9.331-8.537v-4.407h3.97v4.328
					c2.978,0.238,5.876,1.032,8.06,2.422l-1.985,4.883c-2.025-1.151-4.09-1.826-6.075-2.064v6.749
					c4.407,1.032,9.251,2.501,9.251,8.1C193.415,213.457,190.397,217.031,184.163,217.785z"/>
				<path style="opacity:0.6;fill:#FFFFFF;enable-background:new    ;" d="M184.163,207.065v5.479
					c1.985-0.437,2.858-1.469,2.858-2.739C187.022,208.415,185.871,207.66,184.163,207.065z"/>
				<path style="opacity:0.6;fill:#FFFFFF;enable-background:new    ;" d="M177.255,197.536c0,1.39,1.191,2.144,2.938,2.7v-5.638
					C178.089,195.074,177.255,196.226,177.255,197.536z"/>
			</g>
		</g>
		<g>
			<path style="fill:#407BFF;" d="M183.78,249.11c0,6.27-1.81,12.12-4.94,17.05c-2.08,3.3-4.77,6.19-7.89,8.53h-38.17
				c-3.12-2.34-5.8-5.23-7.89-8.53c-3.13-4.93-4.94-10.78-4.94-17.05c0-17.63,14.29-31.92,31.92-31.92
				C169.49,217.19,183.78,231.48,183.78,249.11z"/>
			<path style="opacity:0.5;fill:#FFFFFF;enable-background:new    ;" d="M183.78,249.11c0,6.27-1.81,12.12-4.94,17.05
				c-2.08,3.3-4.77,6.19-7.89,8.53h-38.17c-3.12-2.34-5.8-5.23-7.89-8.53c-3.13-4.93-4.94-10.78-4.94-17.05
				c0-17.63,14.29-31.92,31.92-31.92C169.49,217.19,183.78,231.48,183.78,249.11z"/>
			<g>
				<path style="opacity:0.6;fill:#FFFFFF;enable-background:new    ;" d="M151.87,224.14c-13.79,0-24.97,11.18-24.97,24.97
					c0,6.59,2.56,12.59,6.74,17.05c4.55,4.87,11.03,7.91,18.23,7.91c7.2,0,13.68-3.04,18.23-7.91c4.18-4.46,6.74-10.46,6.74-17.05
					C176.84,235.32,165.66,224.14,151.87,224.14z M154.17,267.77h-3.97v-4.33c-3.93-0.24-7.7-1.47-9.89-3.18l2.19-4.84
					c1.98,1.47,4.84,2.54,7.7,2.82v-6.63c-4.41-1.07-9.33-2.54-9.33-8.22c0-4.21,3.06-7.82,9.33-8.54v-4.4h3.97v4.32
					c2.98,0.24,5.88,1.04,8.06,2.43l-1.99,4.88c-2.02-1.15-4.09-1.83-6.07-2.07v6.75c4.41,1.04,9.25,2.51,9.25,8.1
					c0,4.13-3.02,7.71-9.25,8.46V267.77z"/>
				<path style="opacity:0.6;fill:#FFFFFF;enable-background:new    ;" d="M154.17,252.6v5.479c1.985-0.436,2.858-1.469,2.858-2.739
					C157.028,253.95,155.877,253.196,154.17,252.6z"/>
				<path style="opacity:0.6;fill:#FFFFFF;enable-background:new    ;" d="M147.261,243.071c0,1.39,1.191,2.144,2.939,2.7v-5.638
					C148.095,240.61,147.261,241.761,147.261,243.071z"/>
			</g>
		</g>
		<path style="fill:#407BFF;" d="M191.462,279.314L50.998,265.037c-3.251-0.331-5.887,2.215-5.887,5.685v119.554
			c0,3.47,2.636,6.552,5.887,6.882l140.464,14.277c3.251,0.33,5.887-2.215,5.887-5.685V286.196
			C197.349,282.725,194.713,279.644,191.462,279.314z"/>
		<g>
			<path style="fill:#263238;" d="M54.03,269.35l-5.01-0.51c-0.28-0.03-0.52,0.17-0.55,0.45c-0.03,0.27,0.17,0.52,0.44,0.55
				l5.02,0.51h0.05c0.26,0,0.47-0.19,0.5-0.45C54.51,269.62,54.31,269.38,54.03,269.35z M65.07,270.47l-5.01-0.51
				c-0.29-0.03-0.52,0.18-0.55,0.45c-0.03,0.28,0.17,0.52,0.44,0.55l5.02,0.51h0.05c0.26,0,0.47-0.19,0.5-0.45
				C65.55,270.75,65.35,270.5,65.07,270.47z M76.11,271.6l-5.01-0.51c-0.29-0.04-0.52,0.17-0.55,0.44
				c-0.03,0.28,0.17,0.52,0.44,0.55l5.02,0.51h0.05c0.26,0,0.47-0.19,0.5-0.45C76.59,271.87,76.39,271.62,76.11,271.6z
				 M87.15,272.72l-5.02-0.51c-0.27-0.03-0.52,0.17-0.54,0.44c-0.03,0.28,0.17,0.52,0.44,0.55l5.02,0.51h0.05
				c0.26,0,0.47-0.19,0.5-0.44C87.63,272.99,87.43,272.75,87.15,272.72z M98.19,273.84l-5.02-0.51c-0.27-0.03-0.51,0.17-0.54,0.45
				c-0.03,0.27,0.17,0.52,0.44,0.54l5.02,0.51c0.02,0.01,0.04,0.01,0.05,0.01c0.26,0,0.47-0.2,0.5-0.45
				C98.67,274.11,98.47,273.87,98.19,273.84z M109.23,274.96l-5.02-0.51c-0.27-0.03-0.51,0.17-0.54,0.45
				c-0.03,0.27,0.17,0.52,0.44,0.55l5.02,0.51h0.05c0.26,0,0.47-0.19,0.5-0.45C109.71,275.23,109.51,274.99,109.23,274.96z
				 M120.27,276.08l-5.02-0.51c-0.27-0.02-0.52,0.18-0.54,0.45c-0.03,0.28,0.17,0.52,0.44,0.55l5.02,0.51h0.05
				c0.26,0,0.47-0.19,0.5-0.45C120.75,276.36,120.55,276.11,120.27,276.08z M131.31,277.21l-5.02-0.51
				c-0.28-0.03-0.52,0.17-0.54,0.44c-0.03,0.28,0.17,0.52,0.44,0.55l5.02,0.51h0.05c0.26,0,0.47-0.19,0.5-0.45
				C131.79,277.48,131.59,277.23,131.31,277.21z M142.35,278.33l-5.02-0.51c-0.28-0.03-0.52,0.17-0.54,0.44
				c-0.03,0.28,0.17,0.53,0.44,0.55l5.02,0.51c0.02,0,0.04,0.01,0.05,0.01c0.26,0,0.47-0.2,0.5-0.45
				C142.83,278.6,142.63,278.36,142.35,278.33z M153.39,279.45l-5.01-0.51c-0.29-0.02-0.53,0.17-0.55,0.45
				c-0.03,0.27,0.17,0.52,0.44,0.54l5.02,0.51c0.02,0.01,0.04,0.01,0.05,0.01c0.26,0,0.47-0.2,0.5-0.45
				C153.87,279.72,153.67,279.48,153.39,279.45z M164.43,280.57l-5.02-0.51c-0.27-0.02-0.52,0.18-0.54,0.45
				c-0.03,0.27,0.17,0.52,0.44,0.55l5.02,0.51h0.05c0.26,0,0.47-0.19,0.5-0.45C164.91,280.84,164.71,280.6,164.43,280.57z
				 M175.47,281.69l-5.02-0.51c-0.27-0.02-0.52,0.18-0.54,0.45c-0.03,0.28,0.17,0.52,0.44,0.55l5.02,0.51h0.05
				c0.26,0,0.47-0.19,0.5-0.45C175.95,281.97,175.75,281.72,175.47,281.69z M186.51,282.82l-5.02-0.51
				c-0.27-0.03-0.52,0.17-0.54,0.44c-0.03,0.28,0.17,0.52,0.44,0.55l5.03,0.51l0.11-0.49L186.51,282.82z M191.79,286.35
				c-0.14-0.24-0.45-0.32-0.69-0.18c-0.23,0.15-0.31,0.45-0.17,0.69c0.6,1.02,0.92,2.18,0.92,3.34v1.27c0,0.28,0.22,0.5,0.5,0.5
				c0.27,0,0.5-0.22,0.5-0.5v-1.27C192.85,288.86,192.48,287.53,191.79,286.35z M192.35,297.02c-0.28,0-0.5,0.23-0.5,0.5v5.05
				c0,0.27,0.22,0.5,0.5,0.5c0.27,0,0.5-0.23,0.5-0.5v-5.05C192.85,297.25,192.62,297.02,192.35,297.02z M192.35,308.12
				c-0.28,0-0.5,0.22-0.5,0.5v5.04c0,0.28,0.22,0.5,0.5,0.5c0.27,0,0.5-0.22,0.5-0.5v-5.04
				C192.85,308.34,192.62,308.12,192.35,308.12z M192.35,319.22c-0.28,0-0.5,0.22-0.5,0.5v5.04c0,0.28,0.22,0.5,0.5,0.5
				c0.27,0,0.5-0.22,0.5-0.5v-5.04C192.85,319.44,192.62,319.22,192.35,319.22z M192.35,330.31c-0.28,0-0.5,0.23-0.5,0.5v5.05
				c0,0.27,0.22,0.5,0.5,0.5c0.27,0,0.5-0.23,0.5-0.5v-5.05C192.85,330.54,192.62,330.31,192.35,330.31z M192.35,341.41
				c-0.28,0-0.5,0.22-0.5,0.5v5.04c0,0.28,0.22,0.5,0.5,0.5c0.27,0,0.5-0.22,0.5-0.5v-5.04
				C192.85,341.63,192.62,341.41,192.35,341.41z M192.35,352.51c-0.28,0-0.5,0.22-0.5,0.5v5.04c0,0.28,0.22,0.5,0.5,0.5
				c0.27,0,0.5-0.22,0.5-0.5v-5.04C192.85,352.73,192.62,352.51,192.35,352.51z M192.35,363.6c-0.28,0-0.5,0.23-0.5,0.5v5.05
				c0,0.27,0.22,0.5,0.5,0.5c0.27,0,0.5-0.23,0.5-0.5v-5.05C192.85,363.83,192.62,363.6,192.35,363.6z M192.35,374.7
				c-0.28,0-0.5,0.22-0.5,0.5v5.05c0,0.27,0.22,0.5,0.5,0.5c0.27,0,0.5-0.23,0.5-0.5v-5.05C192.85,374.92,192.62,374.7,192.35,374.7
				z M192.35,385.8c-0.28,0-0.5,0.22-0.5,0.5v5.04c0,0.28,0.22,0.5,0.5,0.5c0.27,0,0.5-0.22,0.5-0.5v-5.04
				C192.85,386.02,192.62,385.8,192.35,385.8z M45.56,392.59c-0.02,0-0.03-0.01-0.05-0.01c0.09,0.28,0.2,0.55,0.33,0.81
				c0.07-0.06,0.1-0.13,0.12-0.21C46.01,392.91,45.83,392.64,45.56,392.59z M56.55,393.73l-5.02-0.51
				c-0.27-0.03-0.52,0.17-0.54,0.45c-0.03,0.27,0.17,0.52,0.44,0.54l5.02,0.51c0.02,0.01,0.04,0.01,0.05,0.01
				c0.26,0,0.47-0.2,0.5-0.45C57.03,394,56.83,393.76,56.55,393.73z M67.59,394.85l-5.02-0.51c-0.27-0.03-0.52,0.17-0.54,0.45
				c-0.03,0.27,0.17,0.52,0.44,0.55l5.02,0.51h0.05c0.26,0,0.47-0.19,0.5-0.45C68.07,395.12,67.87,394.88,67.59,394.85z
				 M78.63,395.97l-5.02-0.51c-0.27-0.02-0.52,0.18-0.54,0.45c-0.03,0.28,0.17,0.52,0.44,0.55l5.02,0.51h0.05
				c0.26,0,0.47-0.19,0.5-0.45C79.11,396.25,78.91,396,78.63,395.97z M89.67,397.1l-5.02-0.51c-0.27-0.03-0.52,0.17-0.54,0.44
				c-0.03,0.28,0.17,0.52,0.44,0.55l5.02,0.51h0.05c0.26,0,0.47-0.19,0.5-0.45C90.15,397.37,89.95,397.12,89.67,397.1z
				 M100.71,398.22l-5.02-0.51c-0.28-0.03-0.52,0.17-0.54,0.44c-0.03,0.28,0.17,0.52,0.44,0.55l5.02,0.51h0.05
				c0.26,0,0.47-0.19,0.5-0.44C101.19,398.49,100.99,398.25,100.71,398.22z M111.75,399.34l-5.02-0.51
				c-0.27-0.03-0.52,0.17-0.54,0.45c-0.03,0.27,0.17,0.52,0.44,0.54l5.02,0.51c0.02,0.01,0.04,0.01,0.05,0.01
				c0.26,0,0.47-0.2,0.5-0.45C112.23,399.61,112.03,399.37,111.75,399.34z M122.79,400.46l-5.02-0.51
				c-0.28-0.03-0.52,0.17-0.54,0.45c-0.03,0.27,0.17,0.52,0.44,0.55l5.02,0.51h0.05c0.26,0,0.47-0.19,0.5-0.45
				C123.27,400.73,123.07,400.49,122.79,400.46z M133.83,401.58l-5.02-0.51c-0.27-0.03-0.52,0.18-0.54,0.45
				c-0.03,0.28,0.17,0.52,0.44,0.55l5.02,0.51h0.05c0.26,0,0.47-0.19,0.5-0.45C134.31,401.86,134.11,401.61,133.83,401.58z
				 M192.35,396.89c-0.28,0-0.5,0.23-0.5,0.5v4.36c0,0.21-0.01,0.43-0.03,0.64c-0.03,0.27,0.17,0.52,0.44,0.54
				c0.02,0.01,0.04,0.01,0.05,0.01c0.26,0,0.47-0.19,0.5-0.45c0.03-0.24,0.04-0.49,0.04-0.74v-4.36
				C192.85,397.12,192.62,396.89,192.35,396.89z M144.87,402.71l-5.02-0.51c-0.28-0.03-0.52,0.17-0.54,0.44
				c-0.03,0.28,0.17,0.52,0.44,0.55l5.02,0.51h0.05c0.26,0,0.47-0.19,0.5-0.45C145.35,402.98,145.15,402.73,144.87,402.71z
				 M155.91,403.83l-5.02-0.51c-0.28-0.03-0.52,0.17-0.54,0.44c-0.03,0.28,0.17,0.53,0.44,0.55l5.02,0.51
				c0.02,0,0.04,0.01,0.05,0.01c0.26,0,0.47-0.2,0.5-0.45C156.39,404.1,156.19,403.86,155.91,403.83z M166.95,404.95l-5.02-0.51
				c-0.28-0.03-0.52,0.17-0.54,0.45c-0.03,0.27,0.17,0.52,0.44,0.54l5.02,0.51c0.02,0.01,0.04,0.01,0.05,0.01
				c0.26,0,0.47-0.2,0.5-0.45C167.43,405.22,167.23,404.98,166.95,404.95z M177.99,406.07l-5.02-0.51
				c-0.28-0.03-0.52,0.18-0.54,0.45c-0.03,0.27,0.17,0.52,0.44,0.55l5.02,0.51h0.05c0.26,0,0.47-0.19,0.5-0.45
				C178.47,406.34,178.27,406.1,177.99,406.07z M189.41,406.92c-0.1-0.26-0.39-0.38-0.65-0.28c-0.7,0.27-1.45,0.38-2.25,0.3
				l-2.5-0.26c-0.28-0.02-0.52,0.18-0.54,0.45c-0.03,0.28,0.17,0.52,0.44,0.55l2.5,0.25c0.21,0.02,0.41,0.03,0.62,0.03
				c0.73,0,1.44-0.13,2.1-0.39C189.39,407.46,189.51,407.17,189.41,406.92z"/>
		</g>
		<g>
			<path style="fill:#407BFF;" d="M225.095,339.455l-50.121-5.094c-1.491-0.152-2.787,1.019-2.787,2.518v17.034
				c0,1.299,0.983,2.387,2.275,2.518l50.521,5.135c0.942,0.096,1.858-0.342,2.375-1.135l4.45-6.817
				c0.481-0.737,0.545-1.67,0.169-2.465l-4.85-10.257C226.748,340.09,225.977,339.545,225.095,339.455z"/>
			<path style="opacity:0.2;enable-background:new    ;" d="M225.095,339.455l-50.121-5.094c-1.491-0.152-2.787,1.019-2.787,2.518
				v17.034c0,1.299,0.983,2.387,2.275,2.518l50.521,5.135c0.942,0.096,1.858-0.342,2.375-1.135l4.45-6.817
				c0.481-0.737,0.545-1.67,0.169-2.465l-4.85-10.257C226.748,340.09,225.977,339.545,225.095,339.455z"/>
			<path style="fill:#407BFF;" d="M225.066,350.331c0,3.059-2.258,5.538-5.044,5.538c-2.786,0-5.044-2.48-5.044-5.538
				s2.258-5.538,5.044-5.538C222.808,344.793,225.066,347.272,225.066,350.331z"/>
		</g>
	</g>
</g>
<g id="Wallet_2">
	<g>
		<path style="fill:#263238;" d="M297.257,264.439h149.427c3.61,0,6.537,2.927,6.537,6.536v119.049c0,3.61-2.927,6.536-6.537,6.536
			H297.257c-3.61,0-6.536-2.926-6.536-6.536V270.975C290.721,267.365,293.647,264.439,297.257,264.439z"/>
		<path style="opacity:0.2;fill:#FFFFFF;" d="M297.257,264.439h149.427c3.61,0,6.537,2.927,6.537,6.536v119.049
			c0,3.61-2.927,6.536-6.537,6.536H297.257c-3.61,0-6.536-2.926-6.536-6.536V270.975
			C290.721,267.365,293.647,264.439,297.257,264.439z"/>
		<path style="fill:#263238;" d="M300.995,274.692h141.002c2.357,0,4.268-1.911,4.268-4.268v0c0-2.357-1.911-4.268-4.268-4.268
			H300.995c-2.357,0-4.268,1.911-4.268,4.268v0C296.727,272.781,298.638,274.692,300.995,274.692z"/>
		<path style="fill:#263238;" d="M306.869,279.314l140.464-14.276c3.251-0.331,5.887,2.215,5.887,5.685v119.554
			c0,3.47-2.636,6.552-5.887,6.882l-140.464,14.277c-3.251,0.33-5.887-2.215-5.887-5.685V286.196
			C300.982,282.725,303.618,279.644,306.869,279.314z"/>
		<path style="opacity:0.4;fill:#FFFFFF;" d="M306.869,279.314l140.464-14.276c3.251-0.331,5.887,2.215,5.887,5.685v119.554
			c0,3.47-2.636,6.552-5.887,6.882l-140.464,14.277c-3.251,0.33-5.887-2.215-5.887-5.685V286.196
			C300.982,282.725,303.618,279.644,306.869,279.314z"/>
		<g>
			<path style="fill:#FFFFFF;" d="M443.851,269.9c0.03,0.26,0.24,0.45,0.5,0.45h0.05l5.02-0.51c0.27-0.03,0.47-0.28,0.44-0.55
				c-0.03-0.28-0.27-0.48-0.55-0.45l-5.01,0.51C444.021,269.38,443.821,269.62,443.851,269.9z M432.811,271.02
				c0.03,0.26,0.24,0.45,0.5,0.45h0.05l5.02-0.51c0.27-0.03,0.47-0.27,0.44-0.55c-0.03-0.27-0.26-0.48-0.55-0.45l-5.01,0.51
				C432.981,270.5,432.781,270.75,432.811,271.02z M421.771,272.14c0.03,0.26,0.24,0.45,0.5,0.45h0.05l5.02-0.51
				c0.27-0.03,0.47-0.27,0.44-0.55c-0.03-0.27-0.26-0.48-0.55-0.44l-5.01,0.51C421.941,271.62,421.741,271.87,421.771,272.14z
				 M410.731,273.27c0.03,0.25,0.24,0.44,0.5,0.44h0.05l5.02-0.51c0.27-0.03,0.47-0.27,0.44-0.55c-0.02-0.27-0.27-0.47-0.54-0.44
				l-5.02,0.51C410.901,272.75,410.701,272.99,410.731,273.27z M399.691,274.39c0.03,0.25,0.24,0.45,0.5,0.45
				c0.01,0,0.03,0,0.05-0.01l5.02-0.51c0.27-0.02,0.47-0.27,0.44-0.54c-0.03-0.28-0.27-0.48-0.54-0.45l-5.02,0.51
				C399.861,273.87,399.661,274.11,399.691,274.39z M388.651,275.51c0.03,0.26,0.24,0.45,0.5,0.45h0.05l5.02-0.51
				c0.27-0.03,0.47-0.28,0.44-0.55c-0.03-0.28-0.27-0.48-0.54-0.45l-5.02,0.51C388.821,274.99,388.621,275.23,388.651,275.51z
				 M377.611,276.63c0.03,0.26,0.24,0.45,0.5,0.45h0.05l5.02-0.51c0.27-0.03,0.47-0.27,0.44-0.55c-0.02-0.27-0.27-0.47-0.54-0.45
				l-5.02,0.51C377.781,276.11,377.581,276.36,377.611,276.63z M366.571,277.75c0.03,0.26,0.24,0.45,0.5,0.45h0.05l5.02-0.51
				c0.27-0.03,0.47-0.27,0.44-0.55c-0.02-0.27-0.26-0.47-0.54-0.44l-5.02,0.51C366.741,277.23,366.541,277.48,366.571,277.75z
				 M355.531,278.88c0.03,0.25,0.24,0.45,0.5,0.45c0.01,0,0.03-0.01,0.05-0.01l5.02-0.51c0.27-0.02,0.47-0.27,0.44-0.55
				c-0.02-0.27-0.26-0.47-0.54-0.44l-5.02,0.51C355.701,278.36,355.501,278.6,355.531,278.88z M344.491,280
				c0.03,0.25,0.24,0.45,0.5,0.45c0.01,0,0.03,0,0.05-0.01l5.02-0.51c0.27-0.02,0.47-0.27,0.44-0.54c-0.02-0.28-0.26-0.47-0.55-0.45
				l-5.01,0.51C344.661,279.48,344.461,279.72,344.491,280z M333.451,281.12c0.03,0.26,0.24,0.45,0.5,0.45h0.05l5.02-0.51
				c0.27-0.03,0.47-0.28,0.44-0.55c-0.02-0.27-0.27-0.47-0.54-0.45l-5.02,0.51C333.621,280.6,333.421,280.84,333.451,281.12z
				 M322.411,282.24c0.03,0.26,0.24,0.45,0.5,0.45h0.05l5.02-0.51c0.27-0.03,0.47-0.27,0.44-0.55c-0.02-0.27-0.27-0.47-0.54-0.45
				l-5.02,0.51C322.581,281.72,322.381,281.97,322.411,282.24z M311.801,283.32l0.11,0.49l5.03-0.51c0.27-0.03,0.47-0.27,0.44-0.55
				c-0.02-0.27-0.27-0.47-0.54-0.44l-5.02,0.51L311.801,283.32z M305.481,290.2v1.27c0,0.28,0.23,0.5,0.5,0.5
				c0.28,0,0.5-0.22,0.5-0.5v-1.27c0-1.16,0.32-2.32,0.92-3.34c0.14-0.24,0.06-0.54-0.17-0.69c-0.24-0.14-0.55-0.06-0.69,0.18
				C305.851,287.53,305.481,288.86,305.481,290.2z M305.481,297.52v5.05c0,0.27,0.23,0.5,0.5,0.5c0.28,0,0.5-0.23,0.5-0.5v-5.05
				c0-0.27-0.22-0.5-0.5-0.5C305.711,297.02,305.481,297.25,305.481,297.52z M305.481,308.62v5.04c0,0.28,0.23,0.5,0.5,0.5
				c0.28,0,0.5-0.22,0.5-0.5v-5.04c0-0.28-0.22-0.5-0.5-0.5C305.711,308.12,305.481,308.34,305.481,308.62z M305.481,319.72v5.04
				c0,0.28,0.23,0.5,0.5,0.5c0.28,0,0.5-0.22,0.5-0.5v-5.04c0-0.28-0.22-0.5-0.5-0.5C305.711,319.22,305.481,319.44,305.481,319.72z
				 M305.481,330.81v5.05c0,0.27,0.23,0.5,0.5,0.5c0.28,0,0.5-0.23,0.5-0.5v-5.05c0-0.27-0.22-0.5-0.5-0.5
				C305.711,330.31,305.481,330.54,305.481,330.81z M305.481,341.91v5.04c0,0.28,0.23,0.5,0.5,0.5c0.28,0,0.5-0.22,0.5-0.5v-5.04
				c0-0.28-0.22-0.5-0.5-0.5C305.711,341.41,305.481,341.63,305.481,341.91z M305.481,353.01v5.04c0,0.28,0.23,0.5,0.5,0.5
				c0.28,0,0.5-0.22,0.5-0.5v-5.04c0-0.28-0.22-0.5-0.5-0.5C305.711,352.51,305.481,352.73,305.481,353.01z M305.481,364.1v5.05
				c0,0.27,0.23,0.5,0.5,0.5c0.28,0,0.5-0.23,0.5-0.5v-5.05c0-0.27-0.22-0.5-0.5-0.5C305.711,363.6,305.481,363.83,305.481,364.1z
				 M305.481,375.2v5.05c0,0.27,0.23,0.5,0.5,0.5c0.28,0,0.5-0.23,0.5-0.5v-5.05c0-0.28-0.22-0.5-0.5-0.5
				C305.711,374.7,305.481,374.92,305.481,375.2z M305.481,386.3v5.04c0,0.28,0.23,0.5,0.5,0.5c0.28,0,0.5-0.22,0.5-0.5v-5.04
				c0-0.28-0.22-0.5-0.5-0.5C305.711,385.8,305.481,386.02,305.481,386.3z M452.371,393.18c0.02,0.08,0.05,0.15,0.12,0.21
				c0.13-0.26,0.24-0.53,0.33-0.81c-0.02,0-0.03,0.01-0.05,0.01C452.501,392.64,452.321,392.91,452.371,393.18z M441.331,394.28
				c0.03,0.25,0.24,0.45,0.5,0.45c0.01,0,0.03,0,0.05-0.01l5.02-0.51c0.27-0.02,0.47-0.27,0.44-0.54c-0.02-0.28-0.27-0.48-0.54-0.45
				l-5.02,0.51C441.501,393.76,441.301,394,441.331,394.28z M430.291,395.4c0.03,0.26,0.24,0.45,0.5,0.45h0.05l5.02-0.51
				c0.27-0.03,0.47-0.28,0.44-0.55c-0.02-0.28-0.27-0.48-0.54-0.45l-5.02,0.51C430.461,394.88,430.261,395.12,430.291,395.4z
				 M419.251,396.52c0.03,0.26,0.24,0.45,0.5,0.45h0.05l5.02-0.51c0.27-0.03,0.47-0.27,0.44-0.55c-0.02-0.27-0.27-0.47-0.54-0.45
				l-5.02,0.51C419.421,396,419.221,396.25,419.251,396.52z M408.211,397.64c0.03,0.26,0.24,0.45,0.5,0.45h0.05l5.02-0.51
				c0.27-0.03,0.47-0.27,0.44-0.55c-0.02-0.27-0.27-0.47-0.54-0.44l-5.02,0.51C408.381,397.12,408.181,397.37,408.211,397.64z
				 M397.171,398.77c0.03,0.25,0.24,0.44,0.5,0.44h0.05l5.02-0.51c0.27-0.03,0.47-0.27,0.44-0.55c-0.02-0.27-0.26-0.47-0.54-0.44
				l-5.02,0.51C397.341,398.25,397.141,398.49,397.171,398.77z M386.131,399.89c0.03,0.25,0.24,0.45,0.5,0.45
				c0.01,0,0.03,0,0.05-0.01l5.02-0.51c0.27-0.02,0.47-0.27,0.44-0.54c-0.02-0.28-0.27-0.48-0.54-0.45l-5.02,0.51
				C386.301,399.37,386.101,399.61,386.131,399.89z M375.091,401.01c0.03,0.26,0.24,0.45,0.5,0.45h0.05l5.02-0.51
				c0.27-0.03,0.47-0.28,0.44-0.55c-0.02-0.28-0.26-0.48-0.54-0.45l-5.02,0.51C375.261,400.49,375.061,400.73,375.091,401.01z
				 M364.051,402.13c0.03,0.26,0.24,0.45,0.5,0.45h0.05l5.02-0.51c0.27-0.03,0.47-0.27,0.44-0.55c-0.02-0.27-0.27-0.48-0.54-0.45
				l-5.02,0.51C364.221,401.61,364.021,401.86,364.051,402.13z M305.481,397.39v4.36c0,0.25,0.01,0.5,0.04,0.74
				c0.03,0.26,0.24,0.45,0.5,0.45c0.01,0,0.03,0,0.05-0.01c0.27-0.02,0.47-0.27,0.44-0.54c-0.02-0.21-0.03-0.43-0.03-0.64v-4.36
				c0-0.27-0.22-0.5-0.5-0.5C305.711,396.89,305.481,397.12,305.481,397.39z M353.011,403.25c0.03,0.26,0.24,0.45,0.5,0.45h0.05
				l5.02-0.51c0.27-0.03,0.47-0.27,0.44-0.55c-0.02-0.27-0.26-0.47-0.54-0.44l-5.02,0.51
				C353.181,402.73,352.981,402.98,353.011,403.25z M341.971,404.38c0.03,0.25,0.24,0.45,0.5,0.45c0.01,0,0.03-0.01,0.05-0.01
				l5.02-0.51c0.27-0.02,0.47-0.27,0.44-0.55c-0.02-0.27-0.26-0.47-0.54-0.44l-5.02,0.51
				C342.141,403.86,341.941,404.1,341.971,404.38z M330.931,405.5c0.03,0.25,0.24,0.45,0.5,0.45c0.01,0,0.03,0,0.05-0.01l5.02-0.51
				c0.27-0.02,0.47-0.27,0.44-0.54c-0.02-0.28-0.26-0.48-0.54-0.45l-5.02,0.51C331.101,404.98,330.901,405.22,330.931,405.5z
				 M319.891,406.62c0.03,0.26,0.24,0.45,0.5,0.45h0.05l5.02-0.51c0.27-0.03,0.47-0.28,0.44-0.55c-0.02-0.27-0.26-0.48-0.54-0.45
				l-5.02,0.51C320.061,406.1,319.861,406.34,319.891,406.62z M309.201,407.57c0.66,0.26,1.37,0.39,2.1,0.39
				c0.21,0,0.41-0.01,0.62-0.03l2.5-0.25c0.27-0.03,0.47-0.27,0.44-0.55c-0.02-0.27-0.26-0.47-0.54-0.45l-2.5,0.26
				c-0.8,0.08-1.55-0.03-2.25-0.3c-0.26-0.1-0.55,0.02-0.65,0.28C308.821,407.17,308.941,407.46,309.201,407.57z"/>
		</g>
		<path style="fill:#263238;" d="M328.64,346.01c0,3.899-2.79,7.06-6.232,7.06c-3.442,0-6.232-3.161-6.232-7.06
			c0-3.899,2.79-7.06,6.232-7.06C325.85,338.95,328.64,342.111,328.64,346.01z"/>
		<path style="opacity:0.2;fill:#FFFFFF;" d="M326.594,346.01c0,2.544-1.821,4.607-4.067,4.607c-2.246,0-4.067-2.063-4.067-4.607
			s1.821-4.607,4.067-4.607C324.773,341.403,326.594,343.466,326.594,346.01z"/>
		<g>
			
				<ellipse transform="matrix(0.2298 -0.9732 0.9732 0.2298 51.424 402.8927)" style="fill:#407BFF;" cx="280.25" cy="168.958" rx="31.914" ry="31.914"/>
			
				<ellipse transform="matrix(0.2298 -0.9732 0.9732 0.2298 51.424 402.8927)" style="opacity:0.5;fill:#FFFFFF;enable-background:new    ;" cx="280.25" cy="168.958" rx="31.914" ry="31.914"/>
			<g>
				<path style="opacity:0.6;fill:#FFFFFF;enable-background:new    ;" d="M280.25,143.99c-13.79,0-24.968,11.178-24.968,24.968
					c0,13.79,11.178,24.968,24.968,24.968c13.789,0,24.968-11.179,24.968-24.968C305.218,155.168,294.04,143.99,280.25,143.99z
					 M282.553,183.171v4.447h-3.97v-4.328c-3.931-0.238-7.703-1.469-9.886-3.176l2.184-4.844c1.985,1.469,4.844,2.541,7.703,2.819
					v-6.63c-4.407-1.072-9.331-2.541-9.331-8.218c0-4.209,3.057-7.822,9.331-8.537v-4.407h3.97v4.328
					c2.978,0.238,5.876,1.032,8.06,2.422l-1.985,4.883c-2.025-1.151-4.09-1.826-6.075-2.064v6.75c4.407,1.032,9.251,2.501,9.251,8.1
					C291.804,178.844,288.786,182.417,282.553,183.171z"/>
				<path style="opacity:0.6;fill:#FFFFFF;enable-background:new    ;" d="M282.553,172.452v5.479
					c1.985-0.436,2.858-1.469,2.858-2.739C285.411,173.802,284.26,173.047,282.553,172.452z"/>
				<path style="opacity:0.6;fill:#FFFFFF;enable-background:new    ;" d="M275.644,162.923c0,1.39,1.191,2.144,2.938,2.7v-5.638
					C276.478,160.461,275.644,161.613,275.644,162.923z"/>
			</g>
		</g>
		<g>
			
				<ellipse transform="matrix(0.9239 -0.3827 0.3827 0.9239 -64.7041 150.8228)" style="fill:#407BFF;" cx="346.767" cy="238.056" rx="31.915" ry="31.914"/>
			
				<ellipse transform="matrix(0.9239 -0.3827 0.3827 0.9239 -64.7041 150.8228)" style="opacity:0.3;fill:#FFFFFF;enable-background:new    ;" cx="346.767" cy="238.056" rx="31.915" ry="31.914"/>
			<g>
				<path style="opacity:0.6;fill:#FFFFFF;enable-background:new    ;" d="M346.767,213.088c-13.79,0-24.968,11.179-24.968,24.968
					c0,13.789,11.178,24.968,24.968,24.968c13.789,0,24.968-11.179,24.968-24.968C371.735,224.267,360.556,213.088,346.767,213.088z
					 M349.07,252.27v4.447h-3.97v-4.328c-3.931-0.238-7.703-1.469-9.886-3.176l2.184-4.844c1.985,1.469,4.844,2.541,7.703,2.819
					v-6.63c-4.407-1.072-9.331-2.541-9.331-8.218c0-4.209,3.057-7.822,9.331-8.537v-4.407h3.97v4.328
					c2.978,0.238,5.876,1.032,8.06,2.422l-1.985,4.883c-2.025-1.151-4.09-1.826-6.075-2.064v6.749
					c4.407,1.032,9.251,2.501,9.251,8.1C358.321,247.942,355.303,251.516,349.07,252.27z"/>
				<path style="opacity:0.6;fill:#FFFFFF;enable-background:new    ;" d="M349.07,241.55v5.479
					c1.985-0.436,2.858-1.469,2.858-2.739C351.928,242.9,350.777,242.145,349.07,241.55z"/>
				<path style="opacity:0.6;fill:#FFFFFF;enable-background:new    ;" d="M342.161,232.021c0,1.39,1.191,2.144,2.938,2.7v-5.638
					C342.995,229.559,342.161,230.711,342.161,232.021z"/>
			</g>
		</g>
	</g>
</g>
<g id="Speech_bubbles">
	<g>
		<g>
			<path style="fill:#407BFF;" d="M144.084,128.917l-13.714-0.056c-2.039-0.008-3.686-1.668-3.677-3.707l0.056-13.714
				c0.008-2.039,1.668-3.685,3.707-3.677l13.714,0.056c2.039,0.008,3.686,1.668,3.677,3.707l-0.056,13.714
				C147.783,127.279,146.123,128.926,144.084,128.917z"/>
			<path style="fill:#407BFF;" d="M139.427,127.599c0,0-2.795,6.318-9.001,8.271c0,0,3.437-1.964,3.2-8.558L139.427,127.599z"/>
			<circle style="opacity:0.6;fill:#FFFFFF;enable-background:new    ;" cx="137.27" cy="118.34" r="6.698"/>
			<path style="fill:#407BFF;" d="M136.368,121.632c-0.003,0-0.006,0-0.009,0c-0.152-0.003-0.295-0.075-0.388-0.196l-2.884-3.758
				c-0.168-0.219-0.127-0.533,0.092-0.701c0.219-0.168,0.534-0.126,0.701,0.092l2.502,3.259l4.166-5.053
				c0.175-0.213,0.491-0.244,0.704-0.068c0.213,0.176,0.244,0.491,0.068,0.704l-4.566,5.539
				C136.658,121.565,136.517,121.632,136.368,121.632z"/>
		</g>
		<g>
			<path style="fill:#407BFF;" d="M363.034,138.409l13.714-0.02c2.039-0.003,3.69-1.658,3.687-3.698l-0.02-13.714
				c-0.003-2.039-1.658-3.69-3.698-3.687l-13.714,0.02c-2.039,0.003-3.69,1.659-3.687,3.698l0.02,13.714
				C359.339,136.761,360.994,138.412,363.034,138.409z"/>
			<path style="opacity:0.6;fill:#FFFFFF;enable-background:new    ;" d="M364.061,123.705c1.487-2.422,4.335-1.496,5.809,0.382
				c1.469-1.882,4.314-2.816,5.807-0.398c2.518,4.076-2.654,7.864-5.097,9.347c-0.277,0.17-0.506,0.311-0.697,0.421
				c-0.191-0.11-0.421-0.249-0.698-0.419C366.738,131.561,361.555,127.789,364.061,123.705z"/>
			<path style="fill:#407BFF;" d="M367.621,136.768c0,0,2.779,6.326,8.979,8.295c0,0-3.431-1.973-3.177-8.567L367.621,136.768z"/>
		</g>
	</g>
</g>
<g id="Character_2">
	<g>
		<path style="fill:#407BFF;" d="M375.42,193.84c0,0-1.03,2-2.71,4.74c-1.57,2.6-3.73,5.87-6.11,8.75
			c-3.51,4.22-7.52,7.58-10.96,6.7c-8.25-2.11-3.26-16.88-3.26-16.88l7.13,1.87c0,0,9.39-22.7,14.94-23.15L375.42,193.84z"/>
		<path style="opacity:0.2;enable-background:new    ;" d="M372.71,198.58c-1.57,2.6-3.73,5.87-6.11,8.75
			c-0.62-7.56,5.13-15.19,5.13-15.19L372.71,198.58z"/>
		<g>
			<path style="fill:#407BFF;" d="M371.67,215.758c0,0,11.523,8.099,45.448,6.121c0,0-9.771-23.206-28.571-23.966
				C369.747,197.154,371.67,215.758,371.67,215.758z"/>
			<path style="opacity:0.1;enable-background:new    ;" d="M371.67,215.758c0,0,11.523,8.099,45.448,6.121
				c0,0-9.771-23.206-28.571-23.966C369.747,197.154,371.67,215.758,371.67,215.758z"/>
		</g>
		<polygon style="fill:#E4897B;" points="344.566,404.747 351.227,405.923 353.959,396.841 356.451,388.505 348.771,385.822 
			346.541,395.841 		"/>
		<path style="fill:#263238;" d="M352.73,405.747c0.112-0.737-9.012-1.755-9.012-1.755s-6.547,4.666-12.163,4.982
			c-5.616,0.317-3.174,4.084,2.852,5.148c6.026,1.064,10.625,1.876,14.907,2.632C353.596,417.511,351.564,413.391,352.73,405.747z"
			/>
		<g>
			<path style="fill:#407BFF;" d="M337.806,405.107c-0.149-0.174-0.279-0.489-0.049-1.001c0.112-0.247,0.31-0.424,0.59-0.525
				c0.528-0.189,1.313-0.071,2.062,0.137c-0.664-0.521-1.224-1.11-1.167-1.59c0.037-0.312,0.282-0.532,0.727-0.654
				c0.419-0.112,0.813-0.057,1.173,0.175c1.132,0.724,1.519,2.957,1.536,3.06c0.006,0.035,0.004,0.072-0.006,0.108h-0.001
				c0,0.001,0,0.001,0,0.001c-0.006,0.021-0.015,0.04-0.026,0.058c0,0,0,0,0,0.001l0,0c-0.017,0.026-0.038,0.049-0.062,0.066l0,0
				l0,0c-0.023,0.018-0.05,0.03-0.079,0.038c-0.431,0.12-2.022,0.535-3.269,0.535C338.607,405.516,338.066,405.41,337.806,405.107z
				 M338.512,404.036c-0.155,0.056-0.257,0.143-0.314,0.27c-0.153,0.338-0.056,0.45-0.025,0.487
				c0.364,0.426,2.104,0.221,3.533-0.108C340.735,404.28,339.226,403.777,338.512,404.036z M340.098,401.94
				c-0.134,0.036-0.36,0.116-0.375,0.244c-0.048,0.41,1.119,1.34,2.366,2.084c-0.192-0.736-0.588-1.818-1.206-2.213
				c-0.162-0.104-0.329-0.155-0.507-0.155C340.285,401.9,340.193,401.914,340.098,401.94z"/>
		</g>
		<polygon style="opacity:0.2;enable-background:new    ;" points="346.505,396.047 353.927,397.023 356.435,388.596 
			348.763,385.868 		"/>
		<polygon style="fill:#E4897B;" points="389.54,407.267 396.304,407.267 397.415,397.849 398.42,389.207 390.39,387.901 
			389.936,398.154 		"/>
		<path style="fill:#263238;" d="M397.753,406.834c-0.018-0.746-9.179-0.161-9.179-0.161s-5.636,5.733-11.112,7.021
			c-5.475,1.288-2.416,4.574,3.704,4.574c6.12,0,10.79,0,15.138,0C400.652,418.267,397.934,414.564,397.753,406.834z"/>
		<g>
			<path style="fill:#407BFF;" d="M382.945,408.798c-0.177-0.145-0.36-0.434-0.222-0.977c0.066-0.263,0.231-0.472,0.489-0.62
				c0.486-0.279,1.279-0.301,2.055-0.225c-0.745-0.397-1.398-0.881-1.425-1.362c-0.018-0.314,0.185-0.572,0.602-0.771
				c0.392-0.185,0.791-0.196,1.186-0.032c1.243,0.517,2.012,2.655,2.044,2.746c0.022,0.063,0.017,0.129-0.009,0.186
				c-0.009,0.018-0.02,0.035-0.033,0.051h0l0,0c-0.022,0.026-0.049,0.048-0.081,0.063c-0.482,0.229-2.517,1.161-3.797,1.161
				C383.419,409.017,383.136,408.954,382.945,408.798z M383.453,407.62c-0.143,0.082-0.228,0.187-0.262,0.32
				c-0.091,0.359,0.023,0.453,0.06,0.484c0.432,0.355,2.111-0.15,3.461-0.722C385.684,407.474,384.114,407.241,383.453,407.62z
				 M384.651,405.281c-0.126,0.059-0.334,0.178-0.327,0.306c0.023,0.412,1.334,1.125,2.692,1.641
				c-0.317-0.692-0.896-1.689-1.572-1.97c-0.125-0.052-0.248-0.078-0.371-0.078C384.933,405.18,384.793,405.214,384.651,405.281z"/>
		</g>
		<polygon style="opacity:0.2;enable-background:new    ;" points="389.936,398.363 397.415,398.034 398.42,389.3 390.39,387.947 		
			"/>
		<g>
			<path style="fill:#407BFF;" d="M347.397,385.121l10.95,1.93c11.05-27.53,18.91-50.51,24.46-69.58
				c2.99-10.29,5.32-19.44,7.11-27.56l-0.5,29.97v68.08h11.12c27.05-129,7.88-158.48,7.88-158.48l-32.36-5.53
				c-1.23,4.83-2.16,12.66-2.71,18.11l-1.46,10.7l-12.65,65.32L347.397,385.121z"/>
			<path style="opacity:0.6;fill:#FFFFFF;enable-background:new    ;" d="M347.397,385.121l10.95,1.93
				c11.05-27.53,18.91-50.51,24.46-69.58c2.99-10.29,5.32-19.44,7.11-27.56l-0.5,29.97v68.08h11.12
				c27.05-129,7.88-158.48,7.88-158.48l-32.36-5.53c-1.23,4.83-2.16,12.66-2.71,18.11l-1.46,10.7l-12.65,65.32L347.397,385.121z"/>
		</g>
		<polygon style="fill:#407BFF;" points="360.064,385.698 346.481,381.195 346.665,386.973 357.898,390.555 		"/>
		<polygon style="fill:#407BFF;" points="401.988,386.327 387.829,384.254 389.015,389.911 400.7,391.486 		"/>
		<polygon style="fill:#263238;" points="408.417,224.645 408.417,229.477 375.417,226.946 375.417,221.233 		"/>
		
			<rect x="382.787" y="222.723" transform="matrix(-0.996 -0.0892 0.0892 -0.996 751.1669 484.5068)" style="fill:#FFFFFF;" width="7.245" height="5.494"/>
		<g>
			
				<rect x="397.125" y="222.65" transform="matrix(-0.9987 -0.051 0.051 -0.9987 783.7995 473.653)" style="fill:#407BFF;" width="1.639" height="8.348"/>
			
				<rect x="397.125" y="222.65" transform="matrix(-0.9987 -0.051 0.051 -0.9987 783.7995 473.653)" style="opacity:0.6;fill:#FFFFFF;enable-background:new    ;" width="1.639" height="8.348"/>
		</g>
		<g>
			
				<rect x="376.964" y="220.436" transform="matrix(-0.9987 -0.051 0.051 -0.9987 743.6313 468.179)" style="fill:#407BFF;" width="1.639" height="8.348"/>
			
				<rect x="376.964" y="220.436" transform="matrix(-0.9987 -0.051 0.051 -0.9987 743.6313 468.179)" style="opacity:0.6;fill:#FFFFFF;enable-background:new    ;" width="1.639" height="8.348"/>
		</g>
		<path style="opacity:0.2;enable-background:new    ;" d="M382.807,317.471c2.99-10.29,5.32-19.44,7.11-27.56
			c0,0-0.18-15.78-2.09-28.74C387.827,261.171,383.087,298.241,382.807,317.471z"/>
		<path style="fill:#E4897B;" d="M442.807,185.855l1.604-7.568c0,0-1.501-2.5-1.173-3.788c0.327-1.288,4.51-8.075,5.603-8.172
			c1.093-0.096,5.856,3.857,5.54,5.521c-0.316,1.664-4.774,7.012-5.394,7.352l-1.221,8.164L442.807,185.855z"/>
		<path style="fill:#407BFF;" d="M375.248,222.235l33.007,2.688c0.783-11.551,1.565-19,8.831-39.583
			c0.628-1.801,1.314-3.711,2.058-5.73c-4.483-1.346-9.053-2.383-13.691-3.111c-4.899-0.819-9.856-1.31-14.822-1.473
			c-6.425-0.045-13.798,0.637-13.798,0.637s-1.053,0.237-1.71,6.64C374.514,188.324,373.924,200.352,375.248,222.235z"/>
		<path style="opacity:0.3;enable-background:new    ;" d="M375.248,222.235l33.007,2.688c0.783-11.551,1.565-19,8.831-39.583
			c0.628-1.801,1.314-3.711,2.058-5.73c-4.483-1.346-9.053-2.383-13.691-3.111c-4.899-0.819-9.856-1.31-14.822-1.473
			c-6.425-0.045-13.798,0.637-13.798,0.637s-1.053,0.237-1.71,6.64C374.514,188.324,373.924,200.352,375.248,222.235z"/>
		<path style="fill:#E4897B;" d="M393.353,182.32c8.135-1.041,10.579-4.516,10.579-4.516c-5.161-4.87-0.873-13.308-0.873-13.308
			l-9.792,1.828c0.257,1.618,0.367,2.975,0.383,4.122c0.074,5.943-2.613,6.001-2.613,6.001
			C389.318,179.666,393.353,182.32,393.353,182.32z"/>
		<path style="opacity:0.2;enable-background:new    ;" d="M393.267,166.324c0.257,1.618,0.367,2.975,0.383,4.122
			c4.72-1.094,9.409-5.95,9.409-5.95L393.267,166.324z"/>
		<path style="fill:#E4897B;" d="M375.123,182.303c12.397,5.776,31.393,4.429,41.964,3.038c0.628-1.801,1.314-3.711,2.058-5.73
			c-4.483-1.346-9.053-2.383-13.691-3.111c-4.899-0.819-9.856-1.31-14.822-1.473c-6.425-0.045-13.798,0.637-13.798,0.637
			S375.78,175.9,375.123,182.303z"/>
		<path style="fill:#407BFF;" d="M420.903,180.608c4.59,1.994,16.016,22.303,16.016,22.303l5.322-18.699l7.408-0.966
			c0,0-0.491,30.294-10.153,32.548c-9.662,2.255-22.377-16.766-22.377-16.766L420.903,180.608z"/>
		<g>
			<path style="fill:#263238;" d="M404.982,133.76c13.372,2.37,17.964,38.174-0.781,33.009c-5.518-1.521-27.107-21.585-17.529-27.51
				C396.249,133.335,404.982,133.76,404.982,133.76z"/>
			<path style="fill:#E4897B;" d="M394.486,139.445c-8.318,0.401-10.78,4.984-10.976,13.585
				c-0.244,10.749,2.498,18.245,12.788,15.455C410.273,164.696,408.3,138.778,394.486,139.445z"/>
			<path style="fill:#DE5753;" d="M388.865,152.306c0,0-1.048,2.228-2.254,3.567c0,0,0.767,1.097,2.238,0.835L388.865,152.306z"/>
			<g>
				<path style="fill:#263238;" d="M393.923,151.38c0.017,0.684,0.4,1.229,0.857,1.218c0.456-0.011,0.812-0.575,0.795-1.259
					c-0.017-0.684-0.4-1.229-0.856-1.218C394.262,150.133,393.906,150.696,393.923,151.38z"/>
				<path style="fill:#263238;" d="M394.909,150.15l-1.502-0.547C393.407,149.603,394.179,150.836,394.909,150.15z"/>
			</g>
			<g>
				<path style="fill:#263238;" d="M385.416,151.449c0.017,0.684,0.4,1.229,0.857,1.218c0.456-0.011,0.812-0.575,0.795-1.259
					c-0.017-0.684-0.4-1.23-0.856-1.218C385.755,150.202,385.399,150.765,385.416,151.449z"/>
				<path style="fill:#263238;" d="M386.402,150.218l-1.502-0.546C384.9,149.672,385.671,150.905,386.402,150.218z"/>
			</g>
			<path style="fill:#263238;" d="M397.397,147.07c-0.097,0-0.194-0.039-0.264-0.118c-1.194-1.333-3.322-0.976-3.342-0.971
				c-0.193,0.029-0.376-0.095-0.41-0.287c-0.034-0.192,0.093-0.376,0.286-0.411c0.103-0.019,2.534-0.433,3.994,1.196
				c0.13,0.145,0.118,0.37-0.027,0.5C397.566,147.04,397.482,147.07,397.397,147.07z"/>
			<path style="fill:#263238;" d="M384.385,146.77c-0.109,0-0.216-0.05-0.286-0.144c-0.116-0.157-0.082-0.379,0.075-0.495
				c1.91-1.406,3.531-0.918,3.599-0.896c0.186,0.059,0.29,0.258,0.23,0.444c-0.059,0.186-0.256,0.291-0.442,0.231
				c-0.064-0.018-1.368-0.389-2.967,0.791C384.531,146.748,384.457,146.77,384.385,146.77z"/>
			<path style="fill:#263238;" d="M404.254,153.026c0,0-4.219-6.646-3.885-11.951c0,0-16.808-5.938-16.814,10.832
				c0,0-2.328-14.779,11.955-15.8c14.26-1.02,15.232,19.901,8.148,26.49C403.658,162.597,406.866,157.184,404.254,153.026z"/>
			<path style="fill:#E4897B;" d="M402.98,154.847c-0.009-1.342,1.264-3.675,3.767-3.524c2.591,0.157,4.075,5.389-2.275,6.971
				C403.561,158.521,402.999,157.647,402.98,154.847z"/>
			<path style="fill:#263238;" d="M404.982,133.76c0,0-11.878-2.724-20.103,3.843c-8.225,6.566,14.017,7.498,14.017,7.498
				l-5.358-3.095c0,0,6.825,2.664,9.961,1.945L404.982,133.76z"/>
			<path style="fill:#263238;" d="M411.886,155.992c0,0,3.033,6.734-1.136,11.9c0,0,2.269,6.277-4.036,9.947
				c0,0,0.761,3.451-4.789,6.994c0,0-2.124,5.119-1.203,9.004l-3.565-2.207c0,0,0.477-4.723,2.992-7.265
				c0,0-0.488-7.605,2.754-9.775c0,0-0.901-4.851-0.198-6.87c0,0,2.348-8.759,2.682-9.7
				C405.388,158.02,410.516,157.861,411.886,155.992z"/>
			<path style="fill:#263238;" d="M391.638,146.165c-0.013,0-0.025-0.001-0.038-0.003c-0.37-0.057-9.049-1.428-9.395-4.392
				c-0.344-2.96,3.618-4.701,3.787-4.773c0.124-0.054,0.268,0.003,0.321,0.127c0.054,0.124-0.003,0.268-0.128,0.321
				c-0.038,0.017-3.797,1.67-3.495,4.268c0.251,2.155,6.57,3.593,8.983,3.966c0.133,0.021,0.225,0.145,0.204,0.278
				C391.86,146.078,391.756,146.165,391.638,146.165z"/>
			<g>
				<path style="fill:#263238;" d="M388.548,158.409c0.605,0.966,1.321,2.83,1.321,2.83c0.181-0.034,0.361-0.069,0.54-0.113
					c2.437-0.528,3.393-1.578,3.714-2.582c0.173-0.55,0.15-1.091,0.075-1.52c-0.082-0.497-0.254-0.833-0.254-0.833
					c-1.125,1.052-3.359,1.719-4.567,2.025C388.871,158.35,388.548,158.409,388.548,158.409z"/>
				<path style="fill:#FFFFFF;" d="M389.376,158.216l0.411,0.824c2.294-0.503,3.842-1.165,4.41-2.017
					c-0.082-0.497-0.254-0.833-0.254-0.833C392.818,157.242,390.584,157.91,389.376,158.216z"/>
				<path style="fill:#DE5753;" d="M390.408,161.127c2.437-0.528,3.393-1.578,3.714-2.582c-0.824,0.212-1.793,0.559-2.59,1.123
					C390.921,160.096,390.593,160.624,390.408,161.127z"/>
			</g>
		</g>
		<path style="fill:#407BFF;" d="M420.903,180.608l-11.187-4.448c0,0-10.551,16.839-4.221,31.477
			c6.33,14.637,11.624,14.242,11.624,14.242L420.903,180.608z"/>
		<path style="fill:#407BFF;" d="M374.451,175.872c0.336-1.121,11.458-1.464,11.458-1.464s-2.964,33.043-14.238,41.35
			C371.67,215.758,369.198,193.396,374.451,175.872z"/>
		<g>
			<path style="fill:#263238;" d="M367.715,186.445c0.058,0.507-0.312,0.918-0.826,0.918h-9.14c-0.514,0-0.977-0.411-1.035-0.918
				l-2.041-18.038c-0.058-0.507,0.312-1.043,0.826-1.043h9.14c0.514,0,0.977,0.536,1.035,1.043L367.715,186.445z"/>
			<path style="opacity:0.5;fill:#FFFFFF;" d="M364.661,168.289l2.068,18.213c0.059,0.514-0.209,0.862-0.719,0.862h-7.75
				c-0.52,0-1.473-0.286-1.531-0.8l-2.068-18.275c-0.059-0.514,0.829-0.925,1.349-0.925h7.75
				C364.27,167.364,364.602,167.775,364.661,168.289z"/>
		</g>
		<path style="fill:#E4897B;" d="M353.198,197.367l3.044-9.015c0,0-0.803-3.659-0.599-5.736s5.743-3.561,6.039-3.066
			c0.296,0.495,2.151,6.527,1.471,8.11c-0.68,1.583-2.065,2.769-2.065,2.769l-2.046,8.47L353.198,197.367z"/>
		<path style="opacity:0.2;enable-background:new    ;" d="M419.016,201.19c0,0-1.761-2.891-2.339-7.354
			c0,0-2.697,9.97,1.527,16.204L419.016,201.19z"/>
	</g>
</g>
<g id="Character_1">
	<g>
		<g>
			<path style="fill:#407BFF;" d="M125.161,177.447c3.231,0.147,16.777,18.336,16.777,18.336l5.03-6.539
				c0,0,7.755,15.067,3.92,22.239c-3.836,7.172-24.053-12.432-24.053-12.432L125.161,177.447z"/>
			<path style="opacity:0.6;fill:#FFFFFF;enable-background:new    ;" d="M125.159,177.449l1.334,14.507l0.341,7.091
				c0,0,3.324,3.222,7.526,6.572c6.171,4.927,14.243,10.126,16.527,5.864c3.835-7.168-3.921-22.238-3.921-22.238l-5.029,6.537
				l-0.034-0.051C141.137,194.632,128.287,177.585,125.159,177.449z"/>
		</g>
		<path style="opacity:0.2;enable-background:new    ;" d="M126.493,191.956l0.341,7.091c0,0,3.324,3.222,7.526,6.572
			c0.401-8.515-7.526-20.917-7.526-20.917L126.493,191.956z"/>
		<path style="opacity:0.2;enable-background:new    ;" d="M141.938,195.783l-0.723,1.385l2.108,8.204c0,0-5.815-5.292-2.108-10.477
			L141.938,195.783z"/>
		<g>
			<path style="fill:#407BFF;" d="M125.844,225.462l-32,2.216c0,0-0.435-17.139-2.985-26.059c-0.83-2.887-1.87-6.132-3.19-9.897
				c-0.56-1.596-1.17-3.281-1.84-5.083c-0.61-1.676-1.28-3.46-2.01-5.334c4.38-1.255,8.84-2.214,13.38-2.896
				c4.78-0.762,9.62-1.219,14.48-1.372c6.27-0.045,13.48,0.592,13.48,0.592s1.02,0.224,1.67,6.177
				C127.419,189.409,127.144,205.103,125.844,225.462z"/>
			<path style="opacity:0.6;fill:#FFFFFF;enable-background:new    ;" d="M125.844,225.461l-32,2.214c0,0-0.01-0.35-0.03-0.986
				c-0.14-3.756-0.77-17.428-2.95-25.066c-0.59-2.062-1.29-4.312-2.13-6.795c-0.33-0.995-0.68-2.026-1.06-3.102
				c-0.56-1.596-1.17-3.281-1.84-5.083c-0.61-1.676-1.28-3.46-2.01-5.334c4.38-1.255,8.84-2.214,13.38-2.896
				c4.78-0.762,9.62-1.219,14.48-1.372c6.27-0.045,13.48,0.592,13.48,0.592s1.02,0.224,1.67,6.177
				C127.424,189.413,127.144,205.102,125.844,225.461z"/>
			<path style="opacity:0.2;enable-background:new    ;" d="M114.014,202.842c0,0-8.82,18.011-20.2,23.847
				c-0.14-3.756-0.77-17.428-2.95-25.066c-0.59-2.062-1.29-4.312-2.13-6.795l3.47-3.738c0,0,2.408,4.165,3.146,9.625l11.309-7.098
				L114.014,202.842z"/>
		</g>
		<path style="fill:#EEC1BB;" d="M86.084,396.101l4.83,2.84c0,0,2.34-3.33,7.34-8.7v-0.01c1.4-1.48,2.87-3.12,4.4-4.88
			c3.06-3.51,6.37-7.52,9.84-11.83c1.02-1.27,2.06-2.57,3.11-3.89c12.09-15.21,25.16-33.09,30.05-45.18
			c1.52-3.76,2.26-6.95,1.93-9.34c-0.99-7.22-3.8-18.09-7.01-28.59c-4.88-16.05-10.37-31.26-10.37-31.26l-13.49,22.85
			c0,0,4.14,9.87,7.91,20.38c3.71,10.32,7.06,21.27,5.82,24.12c-0.12,0.28-0.27,0.61-0.44,0.96c-2.24,4.64-8.44,15.15-15.48,26.76
			c-0.71,1.17-1.43,2.35-2.15,3.53c-3.78,6.2-7.71,12.57-11.35,18.42c-1.42,2.3-2.8,4.52-4.11,6.62
			C90.714,388.871,86.084,396.101,86.084,396.101z"/>
		<path style="opacity:0.2;enable-background:new    ;" d="M115.878,369.631c-6.38,8.02-12.51,15.3-17.07,20.6
			c-0.65-3.26-1.31-7.12-1.83-11.33c5.27-8.46,11.72-18.9,17.58-28.57C114.508,355.451,114.698,363.021,115.878,369.631z"/>
		<path style="fill:#EEC1BB;" d="M91.804,303.511c1.67,11.39,4.05,21.71,5.6,27.86c0.93,3.69,1.56,5.87,1.56,5.87
			c-0.09,11.49,0.83,23.8,2.06,35.04c0.51,4.58,1.06,8.98,1.63,13.07c2.1,15.14,4.31,26.01,4.31,26.01l5.75-0.75l-0.22-37.09
			l-0.12-19.66l-0.16-26.75l-0.06-4.66l-0.28-20.34l-0.41-30l-20-9C88.784,274.511,89.784,289.791,91.804,303.511z"/>
		<path style="fill:#263238;" d="M86.527,392.947c0.589-0.428,5.568,7.031,5.568,7.031s-1.109,7.776,1.138,12.79
			c2.247,5.015-2.118,4.587-5.747-0.164c-3.629-4.751-6.398-8.377-8.976-11.753C75.931,397.477,80.418,397.39,86.527,392.947z"/>
		<g>
			<path style="fill:#407BFF;" d="M93.784,405.608c-1.131-0.265-1.865-3.489-2.001-4.133c-0.007-0.031-0.007-0.063-0.001-0.094l0,0
				l0.001-0.001c0.005-0.025,0.013-0.049,0.026-0.072h0l0,0c0.013-0.023,0.029-0.043,0.049-0.06h0
				c0.001,0.002,0.001-0.001,0.001-0.001h0.001l0.001-0.001l0,0c0.024-0.021,0.052-0.036,0.082-0.046
				c0.104-0.033,2.208-0.697,3.344-0.04c0.362,0.209,0.59,0.525,0.678,0.939c0.094,0.442,0.013,0.753-0.241,0.924
				c-0.391,0.263-1.152,0.043-1.902-0.299c0.517,0.556,0.972,1.185,1.043,1.728c0.038,0.288-0.026,0.54-0.191,0.747
				c-0.265,0.335-0.524,0.426-0.729,0.426C93.885,405.626,93.832,405.619,93.784,405.608z M93.891,405.149
				c0.046,0.01,0.186,0.045,0.412-0.241c0.083-0.105,0.114-0.234,0.093-0.393c-0.097-0.737-1.211-1.818-1.997-2.48
				C92.757,403.421,93.36,405.024,93.891,405.149z M92.59,401.517c1.204,0.748,2.533,1.343,2.868,1.115
				c0.104-0.07,0.071-0.302,0.043-0.434c-0.06-0.282-0.208-0.488-0.452-0.63c-0.292-0.169-0.68-0.228-1.079-0.228
				C93.472,401.341,92.956,401.434,92.59,401.517z"/>
		</g>
		<path style="fill:#263238;" d="M104.929,407.691c0.017-0.728,8.968-0.157,8.968-0.157s5.506,5.601,10.855,6.859
			c5.349,1.259,2.36,4.468-3.618,4.468c-5.978,0-10.541,0-14.789,0C102.097,418.861,104.752,415.242,104.929,407.691z"/>
		<g>
			<path style="fill:#407BFF;" d="M114.896,408.69c-0.029-0.013-0.054-0.033-0.075-0.055l0-0.001l0,0
				c-0.017-0.019-0.031-0.041-0.041-0.065l0,0l0-0.001c-0.01-0.023-0.016-0.048-0.017-0.074l0,0l-0.001-0.001c0,0,0,0,0-0.001l0,0
				c-0.002-0.033,0.003-0.066,0.014-0.095c0.038-0.107,0.789-2.179,1.997-2.682c0.385-0.16,0.775-0.148,1.158,0.032
				c0.408,0.194,0.606,0.446,0.589,0.753c-0.027,0.47-0.665,0.942-1.392,1.331c0.756-0.073,1.532-0.053,2.007,0.219
				c0.252,0.145,0.413,0.349,0.478,0.606c0.135,0.53-0.043,0.812-0.216,0.954c-0.186,0.153-0.463,0.215-0.789,0.215
				C117.355,409.824,115.366,408.914,114.896,408.69z M115.715,408.54c1.32,0.559,2.958,1.052,3.381,0.705
				c0.037-0.031,0.148-0.122,0.059-0.473c-0.033-0.131-0.117-0.233-0.256-0.313c-0.248-0.142-0.626-0.196-1.055-0.196
				C117.154,408.263,116.333,408.403,115.715,408.54z M116.954,406.151c-0.702,0.291-1.255,1.309-1.535,1.923
				c1.325-0.504,2.604-1.199,2.628-1.602c0.007-0.125-0.197-0.241-0.32-0.298c-0.138-0.066-0.275-0.099-0.412-0.099
				C117.196,406.075,117.076,406.101,116.954,406.151z"/>
		</g>
		<path style="opacity:0.6;fill:#FFFFFF;enable-background:new    ;" d="M113.629,229.298c0,0.894,0.725,1.619,1.619,1.619
			s1.619-0.725,1.619-1.619c0-0.894-0.725-1.619-1.619-1.619S113.629,228.404,113.629,229.298z"/>
		<path style="fill:#EEC1BB;" d="M146.413,190.74l-4.061-6.89c0,0,0.012-3.622-0.343-4.475c-0.355-0.852-4.333-2.776-5.114-2.489
			c-0.781,0.287-1.065,7.393-0.355,8.351c0.71,0.957,3.196,2.022,3.196,2.022l-0.17,1.349l2.372,7.174L146.413,190.74z"/>
		<polygon style="fill:#407BFF;" points="148.046,189.959 146.697,188.609 140.304,195.783 141.214,198.624 		"/>
		<path style="fill:#263238;" d="M143.113,275.115l-24.57,8.73l-0.82-2.25l-1.01-2.77l-0.42,4l-0.32,3.07h-29.83
			c0,0-0.09-0.86-0.18-2.4c-0.29-4.8-0.66-16.24,1.2-29.38c1.12-7.94,3.06-16.51,6.32-24.6c0.25-0.62,0.51-1.23,0.77-1.84l32-2.47
			l0.27,1.54l2.01,11.49l3.82,9.66l9.43,23.85L143.113,275.115z"/>
		<path style="fill:#EEC1BB;" d="M103.081,198.053l9.399-7.374c0,0,1.423-3.957,1.995-4.644c0.572-0.687,8.813-3.728,9.5-3.81
			c0.687-0.082,0.042,6.752-1.03,7.914c-1.072,1.162-7.669,3.453-7.669,3.453l-9.842,9.268L103.081,198.053z"/>
		<g>
			<path style="fill:#407BFF;" d="M84.284,181.21c-5.519,2.766-7.974,33.939,1.611,39.322c9.585,5.383,23.908-18.94,23.908-18.94
				l-5.564-5.904c0,0-11.669,9.769-13.077,8.872c-1.409-0.897,0.194-10.444,0.194-10.444s1.641-2.889-1.812-7.43
				C86.09,182.144,84.284,181.21,84.284,181.21z"/>
			<path style="opacity:0.6;fill:#FFFFFF;enable-background:new    ;" d="M84.284,181.21c-5.519,2.766-7.974,33.939,1.611,39.322
				c9.585,5.383,23.908-18.94,23.908-18.94l-5.564-5.904c0,0-11.669,9.769-13.077,8.872c-1.409-0.897,0.194-10.444,0.194-10.444
				s1.641-2.889-1.812-7.43C86.09,182.144,84.284,181.21,84.284,181.21z"/>
		</g>
		<polygon style="fill:#407BFF;" points="109.91,203.756 111.576,202.755 105.326,193.592 103.031,194.872 		"/>
		<path style="opacity:0.2;" d="M101.273,230.585c0,0-3.63,20.04-14.11,23.53c1.12-7.94,3.06-16.51,6.32-24.6L101.273,230.585z"/>
		<path style="opacity:0.2;" d="M132.353,247.895c-8.39-4.09-8.25-20.22-8.25-20.22l2.42-0.93l2.01,11.49L132.353,247.895z"/>
		<path style="opacity:0.2;" d="M116.293,282.825l-0.32,3.07h-29.83c0,0-0.09-0.86-0.18-2.4L116.293,282.825z"/>
		<polygon style="opacity:0.2;" points="143.113,275.115 118.543,283.845 117.723,281.595 141.783,271.745 		"/>
		<path style="opacity:0.2;" d="M116.714,278.829l0.639-8.176l6.753-13.253c0,0,2.127,7.646-1.235,14.455
			C119.507,278.665,116.714,278.829,116.714,278.829z"/>
		<polygon style="opacity:0.5;enable-background:new    ;" points="94.254,227.679 92.905,231.008 126.97,229.298 126.254,225.207 
					"/>
		<path style="fill:#407BFF;" d="M112.237,226.44l0.398,3.741c0.044,0.41,0.406,0.711,0.817,0.678l4.987-0.397
			c0.424-0.034,0.738-0.408,0.697-0.831l-0.351-3.687c-0.039-0.411-0.398-0.715-0.809-0.687l-5.034,0.343
			C112.512,225.629,112.192,226.01,112.237,226.44z"/>
		<polygon style="fill:#263238;" points="103.881,226.89 103.485,231.291 102.249,231.291 102.447,226.89 		"/>
		<polygon style="fill:#263238;" points="121.831,225.548 122.326,230.154 123.463,230.154 123.067,225.357 		"/>
		<path style="fill:#263238;" d="M107.69,149.714c-0.057,0-0.114-0.019-0.161-0.059c-0.106-0.089-0.12-0.247-0.031-0.352
			c5.34-6.358,2.589-10.383,2.47-10.551c-0.08-0.112-0.054-0.268,0.058-0.349c0.113-0.081,0.268-0.055,0.349,0.057
			c0.129,0.18,3.111,4.491-2.493,11.164C107.832,149.684,107.762,149.714,107.69,149.714z"/>
		<g>
			<path style="fill:#407BFF;" d="M138.275,188.468l3.262-14.75c0.113-0.511-0.231-1.011-0.748-1.089l-5.811-0.869
				c-0.468-0.07-0.911,0.233-1.015,0.695l-3.382,15.032c-0.119,0.53,0.252,1.044,0.792,1.097l5.931,0.587
				C137.759,189.217,138.176,188.914,138.275,188.468z"/>
			<path style="opacity:0.3;enable-background:new    ;" d="M138.275,188.468l3.262-14.75c0.113-0.511-0.231-1.011-0.748-1.089
				l-5.811-0.869c-0.468-0.07-0.911,0.233-1.015,0.695l-3.382,15.032c-0.119,0.53,0.252,1.044,0.792,1.097l5.931,0.587
				C137.759,189.217,138.176,188.914,138.275,188.468z"/>
			<path style="fill:#407BFF;" d="M138.883,188.481l3.262-14.75c0.113-0.511-0.231-1.011-0.748-1.088l-5.811-0.869
				c-0.468-0.07-0.911,0.233-1.015,0.695l-3.382,15.032c-0.119,0.529,0.252,1.044,0.792,1.097l5.931,0.587
				C138.367,189.23,138.784,188.928,138.883,188.481z"/>
			<path style="opacity:0.3;enable-background:new    ;" d="M136.103,173.567c0,0.219-0.177,0.396-0.396,0.396
				c-0.218,0-0.396-0.177-0.396-0.396s0.177-0.396,0.396-0.396C135.926,173.171,136.103,173.348,136.103,173.567z"/>
			<path style="opacity:0.3;enable-background:new    ;" d="M135.905,174.607c0,0.219-0.177,0.396-0.396,0.396
				c-0.218,0-0.396-0.177-0.396-0.396c0-0.218,0.177-0.396,0.396-0.396C135.728,174.211,135.905,174.388,135.905,174.607z"/>
		</g>
		<path style="fill:#407BFF;" d="M110.678,187.264c0,0-10.503-6.437-19.827-7.702c0,0-4.068-2.974,7.678-4.955
			c11.746-1.98,19.758-0.379,20.631,2.842C120.033,180.67,115.432,186.736,110.678,187.264z"/>
		<path style="fill:#263238;" d="M104.917,135.973c0,0,8.151-5.255,17.078-0.49c8.927,4.765,1.378,21.644,1.378,21.644
			s4.318,6.514-0.152,13.796c-4.47,7.282-27.481,4.679-33.863-3.56c-6.382-8.239,5.798-23.531,10.569-24.676
			C104.699,141.542,104.917,135.973,104.917,135.973z"/>
		<path style="fill:#EEC1BB;" d="M110.603,183.818c-8.071-1.453-10.336-5.048-10.336-5.048c5.402-4.601,1.549-13.246,1.549-13.246
			l9.686,2.323c-0.339,1.603-0.518,2.953-0.592,4.098c-0.376,5.931,2.305,6.126,2.305,6.126
			C114.767,181.373,110.603,183.818,110.603,183.818z"/>
		<path style="opacity:0.2;enable-background:new    ;" d="M111.502,167.847c-0.339,1.603-0.518,2.953-0.592,4.098
			c-4.659-1.333-9.094-6.421-9.094-6.421L111.502,167.847z"/>
		<g>
			<path style="fill:#EEC1BB;" d="M110.785,140.125c8.49,0.764,10.814,5.555,10.649,14.36c-0.206,11.004-3.329,18.554-13.735,15.264
				C93.567,165.28,96.685,138.857,110.785,140.125z"/>
			<path style="fill:#D4827D;" d="M115.988,153.517c0,0,0.977,2.324,2.154,3.743c0,0-0.831,1.089-2.325,0.759L115.988,153.517z"/>
			<g>
				<path style="fill:#263238;" d="M110.854,152.355c-0.046,0.699-0.462,1.24-0.928,1.209s-0.806-0.623-0.759-1.322
					c0.046-0.699,0.462-1.24,0.928-1.209C110.56,151.065,110.9,151.656,110.854,152.355z"/>
				<path style="fill:#263238;" d="M109.898,151.055l1.56-0.495C111.457,150.559,110.616,151.788,109.898,151.055z"/>
			</g>
			<g>
				<path style="fill:#263238;" d="M119.552,152.787c-0.046,0.699-0.462,1.24-0.928,1.209c-0.466-0.031-0.806-0.622-0.76-1.321
					c0.046-0.699,0.462-1.24,0.928-1.209C119.258,151.496,119.598,152.088,119.552,152.787z"/>
				<path style="fill:#263238;" d="M118.595,151.486l1.56-0.495C120.155,150.991,119.313,152.22,118.595,151.486z"/>
			</g>
			<path style="fill:#263238;" d="M107.498,147.799c-0.091,0-0.183-0.034-0.253-0.103c-0.143-0.14-0.146-0.369-0.006-0.512
				c1.561-1.604,4.031-1.078,4.135-1.053c0.195,0.044,0.318,0.236,0.275,0.432s-0.239,0.315-0.432,0.276
				c-0.021-0.005-2.182-0.461-3.46,0.851C107.687,147.763,107.593,147.799,107.498,147.799z"/>
			<path style="fill:#263238;" d="M120.82,148.045c-0.08,0-0.16-0.026-0.227-0.08c-1.592-1.278-2.945-0.949-3.001-0.935
				c-0.192,0.05-0.391-0.065-0.442-0.258c-0.051-0.192,0.062-0.39,0.254-0.442c0.07-0.02,1.749-0.451,3.643,1.069
				c0.156,0.125,0.181,0.354,0.056,0.51C121.031,147.999,120.926,148.045,120.82,148.045z"/>
			<path style="fill:#263238;" d="M100.219,153.6c0,0,4.597-6.618,4.48-12.058c0,0,17.443-5.36,16.737,11.792
				c0,0,3.008-15.016-11.557-16.666c-14.541-1.648-16.423,19.707-9.458,26.746C100.422,163.414,97.371,157.742,100.219,153.6z"/>
			<path style="fill:#EEC1BB;" d="M101.445,155.517c0.066-1.372-1.136-3.813-3.703-3.764c-2.657,0.05-4.396,5.339,2.031,7.226
				C100.694,159.25,101.306,158.38,101.445,155.517z"/>
			<path style="fill:#263238;" d="M115.053,161.952c-0.821,0-3.798-0.215-4.714-3.257c-0.057-0.187,0.05-0.385,0.237-0.441
				c0.189-0.057,0.385,0.05,0.441,0.237c0.895,2.971,4.056,2.761,4.19,2.75c0.201-0.017,0.365,0.131,0.38,0.325
				c0.016,0.194-0.129,0.365-0.324,0.381C115.258,161.946,115.182,161.952,115.053,161.952z"/>
		</g>
		<path style="fill:#263238;" d="M110.785,140.125c0,0-0.397,10.879-10.766,12.405c-12.527,1.844-15.425,13.904-5.47,18.885
			c0,0-10.201-4.58-9.947-12.166c0.258-7.706,9.617-16.247,9.617-16.247s-1.26-6.903,8.933-8.592
			C108.9,133.457,110.785,140.125,110.785,140.125z"/>
		<path style="fill:#263238;" d="M121.135,174.169c-0.081,0-0.16-0.039-0.208-0.111c-0.077-0.115-0.046-0.27,0.069-0.347
			c2.76-1.837,4.374-4.141,4.797-6.847c0.83-5.312-3.224-10.468-3.265-10.52c-0.086-0.108-0.068-0.265,0.04-0.351
			c0.107-0.085,0.266-0.068,0.351,0.04c0.173,0.217,4.231,5.374,3.368,10.906c-0.445,2.851-2.132,5.269-5.014,7.188
			C121.23,174.155,121.183,174.169,121.135,174.169z"/>
	</g>
</g>
</svg>
